<svg xmlns="http://www.w3.org/2000/svg" version="1.1" xmlns:xlink="http://www.w3.org/1999/xlink" xmlns:svgjs="http://svgjs.dev/svgjs" width="1440" height="560" preserveAspectRatio="none" viewBox="0 0 1440 560"><g mask="url(&quot;#SvgjsMask1023&quot;)" fill="none"><rect width="1440" height="560" x="0" y="0" fill="rgba(185, 214, 219, 1)"></rect><path d="M0,316.592C59.6,307.314,115.686,291.188,168.974,262.928C226.475,232.434,299.897,208.139,320.759,146.486C341.696,84.611,280.891,25.605,271.131,-38.983C261.475,-102.884,292.347,-170.7,264.051,-228.802C232.66,-293.258,180.159,-361.948,109.123,-371.64C37.36,-381.431,-19.228,-313.687,-81.006,-275.881C-127.003,-247.733,-165.017,-213.488,-206.2,-178.674C-255.969,-136.602,-330.442,-112.775,-348.144,-50.056C-365.907,12.878,-317.898,73.438,-294.604,134.541C-269.571,200.206,-266.323,284.442,-206.541,321.384C-146.747,358.333,-69.453,327.404,0,316.592" fill="#94c0c8"></path><path d="M1440 1075.391C1550.719 1073.492 1671.962 1125.759 1765.348 1066.251 1858.758 1006.7280000000001 1863.374 875.097 1911.145 775.165 1959.973 673.023 2048.96 585.619 2049.227 472.406 2049.508 353.423 1979.717 248.73200000000003 1912.621 150.47199999999998 1838.401 41.778999999999996 1769.378-95.35699999999997 1641.181-125.16099999999994 1513.077-154.94299999999998 1395.074-53.972999999999956 1276.315 2.5399999999999636 1175.742 50.399 1068.789 91.221 1000.9069999999999 179.524 934.954 265.317 926.522 376.93899999999996 906.716 483.325 886.038 594.392 846.538 707.481 882.688 814.516 920.349 926.025 1000.804 1027.637 1107.401 1077.534 1209.8890000000001 1125.508 1326.857 1077.3310000000001 1440 1075.391" fill="#deecee"></path></g><defs><mask id="SvgjsMask1023"><rect width="1440" height="560" fill="#ffffff"></rect></mask></defs></svg>