<svg xmlns="http://www.w3.org/2000/svg" version="1.1" xmlns:xlink="http://www.w3.org/1999/xlink" xmlns:svgjs="http://svgjs.dev/svgjs" width="1440" height="560" preserveAspectRatio="none" viewBox="0 0 1440 560"><g mask="url(&quot;#SvgjsMask1000&quot;)" fill="none"><rect width="1440" height="560" x="0" y="0" fill="#0e2a47"></rect><path d="M0,557.827C105.784,540.054,220.503,540.178,303.41,472.115C383.222,406.593,397.738,295.059,436.605,199.391C473.633,108.249,519.395,22.541,525.937,-75.618C533.665,-191.57,538.6,-314.898,477.466,-413.727C412.498,-518.753,307.053,-613.88,184.347,-627.83C63.759,-641.539,-32.275,-535.681,-142.165,-484.168C-233.014,-441.58,-326.869,-413.706,-405.468,-351.34C-498.196,-277.762,-614.918,-207.884,-636.935,-91.577C-659.015,25.06,-559.158,125.109,-516.642,235.942C-470.666,355.796,-485.814,518.524,-376.86,586.406C-267.724,654.401,-126.808,579.132,0,557.827" fill="#0b2239"></path><path d="M1440 989.5609999999999C1519.048 984.056 1579.703 923.864 1644.875 878.7919999999999 1707.7730000000001 835.293 1784.278 801.265 1814.094 730.843 1843.702 660.912 1823.224 580.849 1801.876 507.97 1782.687 442.46299999999997 1745.304 385.692 1698.45 336.052 1653.167 288.077 1597.926 254.401 1537.516 227.89 1469.502 198.04199999999997 1397.1970000000001 150.627 1326.287 172.72899999999998 1255.408 194.82100000000003 1228.588 278.804 1183.916 338.102 1142.612 392.929 1092.782 441.33 1074.163 507.401 1053.8980000000001 579.313 1049.436 656.553 1074.324 726.999 1100.429 800.889 1152.269 862.96 1215.925 908.6669999999999 1281.762 955.94 1359.145 995.192 1440 989.5609999999999" fill="#113255"></path></g><defs><mask id="SvgjsMask1000"><rect width="1440" height="560" fill="#ffffff"></rect></mask></defs></svg>