<svg xmlns="http://www.w3.org/2000/svg" version="1.1" xmlns:xlink="http://www.w3.org/1999/xlink" xmlns:svgjs="http://svgjs.dev/svgjs" width="1440" height="560" preserveAspectRatio="none" viewBox="0 0 1440 560"><g mask="url(&quot;#SvgjsMask1009&quot;)" fill="none"><rect width="1440" height="560" x="0" y="0" fill="rgba(255, 255, 255, 1)"></rect><path d="M1488 560L0 560 L0 360.9Q58.36 347.25, 72 405.61Q77.65 339.26, 144 344.92Q184.24 265.16, 264 305.4Q290.37 259.77, 336 286.14Q431.39 261.53, 456 356.93Q480.49 309.42, 528 333.91Q611.59 297.5, 648 381.08Q674.19 287.27, 768 313.46Q812.66 286.13, 840 330.79Q887.71 306.5, 912 354.22Q941.93 312.15, 984 342.08Q1007.54 293.62, 1056 317.16Q1142.9 284.07, 1176 370.97Q1216.26 291.24, 1296 331.5Q1362.83 278.32, 1416 345.15Q1427.97 285.12, 1488 297.08z" fill="rgba(25, 95, 70, 0.73)"></path><path d="M1488 560L0 560 L0 412.76Q64.88 405.64, 72 470.53Q117.3 395.82, 192 441.12Q214.47 391.59, 264 414.06Q283.47 361.53, 336 381Q380.69 353.69, 408 398.39Q500.23 370.62, 528 462.85Q579.56 442.42, 600 493.98Q613.1 387.08, 720 400.18Q767.67 327.85, 840 375.52Q893.72 357.24, 912 410.96Q940.36 367.31, 984 395.67Q1080.9 372.57, 1104 469.47Q1148.77 442.24, 1176 487.01Q1179.27 370.28, 1296 373.55Q1361.1 318.64, 1416 383.74Q1500.8 396.53, 1488 481.33z" fill="rgba(154, 229, 243, 1)"></path><path d="M1488 560L0 560 L0 540.95Q76.58 497.53, 120 574.1Q161.18 543.28, 192 584.45Q196.77 517.23, 264 522Q276.94 462.94, 336 475.87Q380.03 447.9, 408 491.94Q502.81 466.75, 528 561.57Q573.01 486.59, 648 531.6Q739.16 502.76, 768 593.93Q778.68 532.61, 840 543.29Q849.23 480.51, 912 489.74Q955.42 461.16, 984 504.58Q1068.18 468.76, 1104 552.94Q1128.88 505.83, 1176 530.71Q1222.55 457.26, 1296 503.81Q1399.16 486.97, 1416 590.13Q1423.26 525.39, 1488 532.65z" fill="rgba(206, 218, 233, 1)"></path></g><defs><mask id="SvgjsMask1009"><rect width="1440" height="560" fill="#ffffff"></rect></mask></defs></svg>