<svg xmlns="http://www.w3.org/2000/svg" version="1.1" xmlns:xlink="http://www.w3.org/1999/xlink" xmlns:svgjs="http://svgjs.dev/svgjs" width="1440" height="560" preserveAspectRatio="none" viewBox="0 0 1440 560"><g mask="url(&quot;#SvgjsMask1001&quot;)" fill="none"><rect width="1440" height="560" x="0" y="0" fill="#1e3266"></rect><path d="M1512 560L0 560 L0 307.71Q90.95 278.66, 120 369.61Q173.69 303.3, 240 356.98Q314.68 311.66, 360 386.34Q425.07 331.41, 480 396.49Q495.26 339.75, 552 355.02Q584.9 267.92, 672 300.83Q749.92 258.75, 792 336.67Q825.66 250.33, 912 283.99Q960.61 260.6, 984 309.2Q1030.74 283.94, 1056 330.67Q1094.59 249.26, 1176 287.85Q1249.53 241.38, 1296 314.91Q1378.26 325.18, 1368 407.44Q1348.39 315.84, 1440 296.23Q1469.65 253.88, 1512 283.54z" fill="#182f5d"></path><path d="M1464 560L0 560 L0 415.88Q25.33 369.21, 72 394.54Q99.26 349.8, 144 377.06Q196.57 357.63, 216 410.21Q316.68 390.88, 336 491.56Q362.95 446.51, 408 473.46Q422.42 415.88, 480 430.3Q496.47 374.77, 552 391.25Q625.78 345.03, 672 418.81Q729.33 404.14, 744 461.47Q820.79 418.26, 864 495.05Q869.05 428.1, 936 433.15Q1001.45 378.6, 1056 444.05Q1080.66 396.72, 1128 421.38Q1157.82 379.19, 1200 409.01Q1303.99 393, 1320 497Q1337.33 442.32, 1392 459.65Q1419.25 414.9, 1464 442.16z" fill="#25467d"></path><path d="M1488 560L0 560 L0 488.1Q112.19 480.29, 120 592.47Q149.33 501.8, 240 531.12Q293.68 464.8, 360 518.48Q446.64 485.13, 480 571.77Q509.71 529.48, 552 559.19Q578.67 465.87, 672 492.54Q714.84 463.38, 744 506.22Q821.84 464.06, 864 541.89Q911.27 469.16, 984 516.43Q1050.12 462.55, 1104 528.67Q1122.63 475.29, 1176 493.92Q1241.51 439.44, 1296 504.95Q1380.99 469.94, 1416 554.93Q1458.53 525.46, 1488 567.99z" fill="#356cb1"></path></g><defs><mask id="SvgjsMask1001"><rect width="1440" height="560" fill="#ffffff"></rect></mask></defs></svg>