<svg xmlns="http://www.w3.org/2000/svg" version="1.1" width="1440" height="560" preserveAspectRatio="none" viewBox="0 0 1440 560"><rect width="1440" height="560" x="0" y="0" fill="#0e2a47"></rect><path d="M0 40 C403.20000000000005 60, 892.8 230, 1440 260" fill="none" stroke="#132e65" stroke-width="1.5" stroke-linecap="round"></path><path d="M0 130 C432 150, 864 250, 1440 270" fill="none" stroke="#132e65" stroke-width="1.5" stroke-linecap="round"></path><path d="M0 230 C460.8 235, 835.1999999999999 275, 1440 280" fill="none" stroke="#132e65" stroke-width="1.5" stroke-linecap="round"></path><path d="M0 340 C460.8 335, 835.1999999999999 300, 1440 290" fill="none" stroke="#132e65" stroke-width="1.5" stroke-linecap="round"></path><path d="M0 440 C432 430, 864 320, 1440 300" fill="none" stroke="#132e65" stroke-width="1.5" stroke-linecap="round"></path><path d="M0 520 C403.20000000000005 500, 892.8 330, 1440 310" fill="none" stroke="#132e65" stroke-width="1.5" stroke-linecap="round"></path><path d="M0 260 C1036.8 240, 1238.4 90, 1440 70" fill="none" stroke="#132e65" stroke-width="1.5" stroke-linecap="round"></path><path d="M0 275 C1007.9999999999999 270, 1224 190, 1440 170" fill="none" stroke="#132e65" stroke-width="1.5" stroke-linecap="round"></path><path d="M0 290 C1007.9999999999999 295, 1224 340, 1440 360" fill="none" stroke="#132e65" stroke-width="1.5" stroke-linecap="round"></path><path d="M0 300 C1036.8 320, 1238.4 470, 1440 490" fill="none" stroke="#132e65" stroke-width="1.5" stroke-linecap="round"></path><path d="M432 275 C576 285, 792.0000000000001 285, 950.4000000000001 280" fill="none" stroke="#356cb1" stroke-width="3"></path><circle r="4" cx="0.00" cy="40.00" fill="#8b9ad9"></circle><circle r="4" cx="403.20" cy="60.00" fill="#8b9ad9"></circle><circle r="4" cx="0.00" cy="130.00" fill="#8b9ad9"></circle><circle r="4" cx="432.00" cy="150.00" fill="#8b9ad9"></circle><circle r="4" cx="0.00" cy="230.00" fill="#8b9ad9"></circle><circle r="4" cx="460.80" cy="235.00" fill="#8b9ad9"></circle><circle r="4" cx="0.00" cy="340.00" fill="#8b9ad9"></circle><circle r="4" cx="460.80" cy="335.00" fill="#8b9ad9"></circle><circle r="4" cx="0.00" cy="440.00" fill="#8b9ad9"></circle><circle r="4" cx="432.00" cy="430.00" fill="#8b9ad9"></circle><circle r="4" cx="0.00" cy="520.00" fill="#8b9ad9"></circle><circle r="4" cx="403.20" cy="500.00" fill="#8b9ad9"></circle><circle r="4" cx="1440.00" cy="70.00" fill="#8b9ad9"></circle><circle r="4" cx="1238.40" cy="90.00" fill="#8b9ad9"></circle><circle r="4" cx="1440.00" cy="170.00" fill="#8b9ad9"></circle><circle r="4" cx="1224.00" cy="190.00" fill="#8b9ad9"></circle><circle r="4" cx="1440.00" cy="360.00" fill="#8b9ad9"></circle><circle r="4" cx="1224.00" cy="340.00" fill="#8b9ad9"></circle><circle r="4" cx="1440.00" cy="490.00" fill="#8b9ad9"></circle><circle r="4" cx="1238.40" cy="470.00" fill="#8b9ad9"></circle><circle r="22" cx="892.80" cy="270.00" fill="url(&quot;#GitopsGlowDark&quot;)"></circle><circle r="22" cx="864.00" cy="285.00" fill="url(&quot;#GitopsGlowDark&quot;)"></circle><circle r="22" cx="432.00" cy="260.00" fill="url(&quot;#GitopsGlowDark&quot;)"></circle><defs><radialGradient id="GitopsGlowDark"><stop stop-color="#ffffff" offset="0.1"></stop><stop stop-color="#1735b3" offset="0.35"></stop><stop stop-color="rgba(23, 53, 179, 0)" offset="1"></stop></radialGradient></defs></svg>