<svg xmlns="http://www.w3.org/2000/svg" version="1.1" xmlns:xlink="http://www.w3.org/1999/xlink" xmlns:svgjs="http://svgjs.dev/svgjs" width="1440" height="560" preserveAspectRatio="none" viewBox="0 0 1440 560"><g mask="url(&quot;#SvgjsMask10318&quot;)" fill="none"><rect width="1440" height="560" x="0" y="0" fill="url(&quot;#SvgjsRadialGradient10319&quot;)"></rect><g mask="url(&quot;#SvgjsMask10320&quot;)"><path d="M-16.5 280.5L16.5 280.5L49.5 280.5L82.5 280.5L115.5 280.5" stroke="#3a7cc3" stroke-width="5.5"></path><path d="M107.25 280.5 a8.25 8.25 0 1 0 16.5 0 a8.25 8.25 0 1 0 -16.5 0z" fill="#3a7cc3"></path><path d="M115.5 247.5L148.5 247.5L181.5 247.5L214.5 247.5L247.5 247.5M-16.5 247.5L16.5 247.5L49.5 247.5L82.5 247.5L115.5 247.5L148.5 214.5" stroke="#3a7cc3" stroke-width="5.5"></path><path d="M140.25 214.5 a8.25 8.25 0 1 0 16.5 0 a8.25 8.25 0 1 0 -16.5 0zM239.25 247.5 a8.25 8.25 0 1 0 16.5 0 a8.25 8.25 0 1 0 -16.5 0z" fill="#3a7cc3"></path><path d="M181.5 313.5L214.5 280.5L247.5 280.5M247.5 313.5L280.5 313.5L313.5 313.5L346.5 280.5L379.5 280.5M214.5 313.5L247.5 346.5M313.5 346.5L346.5 379.5L379.5 379.5L412.5 379.5M-16.5 313.5L16.5 313.5L49.5 313.5L82.5 313.5L115.5 313.5L148.5 313.5L181.5 313.5L214.5 313.5L247.5 313.5L280.5 346.5L313.5 346.5L346.5 346.5L379.5 346.5L412.5 346.5L445.5 346.5L478.5 346.5L511.5 346.5" stroke="#3a7cc3" stroke-width="5.5"></path><path d="M503.25 346.5 a8.25 8.25 0 1 0 16.5 0 a8.25 8.25 0 1 0 -16.5 0zM239.25 280.5 a8.25 8.25 0 1 0 16.5 0 a8.25 8.25 0 1 0 -16.5 0zM371.25 280.5 a8.25 8.25 0 1 0 16.5 0 a8.25 8.25 0 1 0 -16.5 0zM239.25 346.5 a8.25 8.25 0 1 0 16.5 0 a8.25 8.25 0 1 0 -16.5 0zM404.25 379.5 a8.25 8.25 0 1 0 16.5 0 a8.25 8.25 0 1 0 -16.5 0z" fill="#3a7cc3"></path><path d="M-16.5 214.5L16.5 214.5L49.5 214.5L82.5 214.5L115.5 214.5L148.5 181.5L181.5 181.5" stroke="#3a7cc3" stroke-width="5.5"></path><path d="M173.25 181.5 a8.25 8.25 0 1 0 16.5 0 a8.25 8.25 0 1 0 -16.5 0z" fill="#3a7cc3"></path><path d="M181.5 379.5L214.5 346.5M115.5 346.5L148.5 346.5L181.5 346.5M-16.5 346.5L16.5 346.5L49.5 346.5L82.5 346.5L115.5 346.5L148.5 379.5L181.5 379.5L214.5 379.5L247.5 379.5L280.5 379.5L313.5 412.5" stroke="#3a7cc3" stroke-width="5.5"></path><path d="M305.25 412.5 a8.25 8.25 0 1 0 16.5 0 a8.25 8.25 0 1 0 -16.5 0zM206.25 346.5 a8.25 8.25 0 1 0 16.5 0 a8.25 8.25 0 1 0 -16.5 0zM173.25 346.5 a8.25 8.25 0 1 0 16.5 0 a8.25 8.25 0 1 0 -16.5 0z" fill="#3a7cc3"></path><path d="M247.5 148.5L280.5 181.5L313.5 181.5L346.5 181.5M214.5 148.5L247.5 181.5M379.5 115.5L412.5 82.5L445.5 82.5L478.5 82.5M-16.5 181.5L16.5 181.5L49.5 181.5L82.5 181.5L115.5 181.5L148.5 148.5L181.5 148.5L214.5 148.5L247.5 148.5L280.5 148.5L313.5 148.5L346.5 115.5L379.5 115.5L412.5 115.5L445.5 115.5" stroke="#3a7cc3" stroke-width="5.5"></path><path d="M437.25 115.5 a8.25 8.25 0 1 0 16.5 0 a8.25 8.25 0 1 0 -16.5 0zM338.25 181.5 a8.25 8.25 0 1 0 16.5 0 a8.25 8.25 0 1 0 -16.5 0zM239.25 181.5 a8.25 8.25 0 1 0 16.5 0 a8.25 8.25 0 1 0 -16.5 0zM470.25 82.5 a8.25 8.25 0 1 0 16.5 0 a8.25 8.25 0 1 0 -16.5 0z" fill="#3a7cc3"></path><path d="M82.5 379.5L115.5 412.5L148.5 445.5L181.5 445.5M346.5 445.5L379.5 478.5L412.5 478.5L445.5 478.5M313.5 445.5L346.5 478.5M-16.5 379.5L16.5 379.5L49.5 379.5L82.5 379.5L115.5 379.5L148.5 412.5L181.5 412.5L214.5 412.5L247.5 412.5L280.5 412.5L313.5 445.5L346.5 445.5L379.5 445.5" stroke="#3a7cc3" stroke-width="5.5"></path><path d="M371.25 445.5 a8.25 8.25 0 1 0 16.5 0 a8.25 8.25 0 1 0 -16.5 0zM173.25 445.5 a8.25 8.25 0 1 0 16.5 0 a8.25 8.25 0 1 0 -16.5 0zM437.25 478.5 a8.25 8.25 0 1 0 16.5 0 a8.25 8.25 0 1 0 -16.5 0zM338.25 478.5 a8.25 8.25 0 1 0 16.5 0 a8.25 8.25 0 1 0 -16.5 0z" fill="#3a7cc3"></path><path d="M82.5 148.5L115.5 115.5L148.5 82.5L181.5 82.5M49.5 148.5L82.5 115.5L115.5 82.5M-16.5 148.5L16.5 148.5L49.5 148.5L82.5 148.5L115.5 148.5L148.5 115.5" stroke="#3a7cc3" stroke-width="5.5"></path><path d="M140.25 115.5 a8.25 8.25 0 1 0 16.5 0 a8.25 8.25 0 1 0 -16.5 0zM173.25 82.5 a8.25 8.25 0 1 0 16.5 0 a8.25 8.25 0 1 0 -16.5 0zM107.25 82.5 a8.25 8.25 0 1 0 16.5 0 a8.25 8.25 0 1 0 -16.5 0z" fill="#3a7cc3"></path></g></g><defs><mask id="SvgjsMask10318"><rect width="1440" height="560" fill="#ffffff"></rect></mask><radialGradient cx="0%" cy="50%" r="1466.97" gradientUnits="userSpaceOnUse" id="SvgjsRadialGradient10319"><stop stop-color="rgba(255, 255, 255, 0.98)" offset="0"></stop><stop stop-color="rgba(255, 255, 255, 1)" offset="1"></stop></radialGradient><mask id="SvgjsMask10320"><rect width="1440" height="560" fill="white"></rect><path d="M111.37 280.5 a4.13 4.13 0 1 0 8.26 0 a4.13 4.13 0 1 0 -8.26 0z" fill="black"></path><path d="M144.37 214.5 a4.13 4.13 0 1 0 8.26 0 a4.13 4.13 0 1 0 -8.26 0zM243.37 247.5 a4.13 4.13 0 1 0 8.26 0 a4.13 4.13 0 1 0 -8.26 0z" fill="black"></path><path d="M507.37 346.5 a4.13 4.13 0 1 0 8.26 0 a4.13 4.13 0 1 0 -8.26 0zM243.37 280.5 a4.13 4.13 0 1 0 8.26 0 a4.13 4.13 0 1 0 -8.26 0zM375.37 280.5 a4.13 4.13 0 1 0 8.26 0 a4.13 4.13 0 1 0 -8.26 0zM243.37 346.5 a4.13 4.13 0 1 0 8.26 0 a4.13 4.13 0 1 0 -8.26 0zM408.37 379.5 a4.13 4.13 0 1 0 8.26 0 a4.13 4.13 0 1 0 -8.26 0z" fill="black"></path><path d="M177.37 181.5 a4.13 4.13 0 1 0 8.26 0 a4.13 4.13 0 1 0 -8.26 0z" fill="black"></path><path d="M309.37 412.5 a4.13 4.13 0 1 0 8.26 0 a4.13 4.13 0 1 0 -8.26 0zM210.37 346.5 a4.13 4.13 0 1 0 8.26 0 a4.13 4.13 0 1 0 -8.26 0zM177.37 346.5 a4.13 4.13 0 1 0 8.26 0 a4.13 4.13 0 1 0 -8.26 0z" fill="black"></path><path d="M441.37 115.5 a4.13 4.13 0 1 0 8.26 0 a4.13 4.13 0 1 0 -8.26 0zM342.37 181.5 a4.13 4.13 0 1 0 8.26 0 a4.13 4.13 0 1 0 -8.26 0zM243.37 181.5 a4.13 4.13 0 1 0 8.26 0 a4.13 4.13 0 1 0 -8.26 0zM474.37 82.5 a4.13 4.13 0 1 0 8.26 0 a4.13 4.13 0 1 0 -8.26 0z" fill="black"></path><path d="M375.37 445.5 a4.13 4.13 0 1 0 8.26 0 a4.13 4.13 0 1 0 -8.26 0zM177.37 445.5 a4.13 4.13 0 1 0 8.26 0 a4.13 4.13 0 1 0 -8.26 0zM441.37 478.5 a4.13 4.13 0 1 0 8.26 0 a4.13 4.13 0 1 0 -8.26 0zM342.37 478.5 a4.13 4.13 0 1 0 8.26 0 a4.13 4.13 0 1 0 -8.26 0z" fill="black"></path><path d="M144.37 115.5 a4.13 4.13 0 1 0 8.26 0 a4.13 4.13 0 1 0 -8.26 0zM177.37 82.5 a4.13 4.13 0 1 0 8.26 0 a4.13 4.13 0 1 0 -8.26 0zM111.37 82.5 a4.13 4.13 0 1 0 8.26 0 a4.13 4.13 0 1 0 -8.26 0z" fill="black"></path></mask></defs></svg>