<svg xmlns="http://www.w3.org/2000/svg" version="1.1" xmlns:xlink="http://www.w3.org/1999/xlink" xmlns:svgjs="http://svgjs.dev/svgjs" width="1440" height="560" preserveAspectRatio="none" viewBox="0 0 1440 560"><g mask="url(&quot;#SvgjsMask1000&quot;)" fill="none"><rect width="1440" height="560" x="0" y="0" fill="#0e2a47"></rect><path d="M198.29 -69.84L263.24 -32.34L263.24 42.66L198.29 80.16L133.33 42.66L133.33 -32.34zM328.19 380.16L393.15 417.66L393.15 492.66L328.19 530.16L263.24 492.66L263.24 417.66zM523.06 267.66L588.01 305.16L588.01 380.16L523.06 417.66L458.1 380.16L458.1 305.16zM652.96 42.66L717.92 80.16L717.92 155.16L652.96 192.66L588.01 155.16L588.01 80.16zM652.96 267.66L717.92 305.16L717.92 380.16L652.96 417.66L588.01 380.16L588.01 305.16zM588.01 380.16L652.96 417.66L652.96 492.66L588.01 530.16L523.06 492.66L523.06 417.66zM652.96 492.66L717.92 530.16L717.92 605.16L652.96 642.66L588.01 605.16L588.01 530.16zM717.92 155.16L782.87 192.66L782.87 267.66L717.92 305.16L652.96 267.66L652.96 192.66zM847.82 155.16L912.78 192.66L912.78 267.66L847.82 305.16L782.87 267.66L782.87 192.66zM912.78 267.66L977.73 305.16L977.73 380.16L912.78 417.66L847.82 380.16L847.82 305.16zM977.73 -69.84L1042.69 -32.34L1042.69 42.66L977.73 80.16L912.78 42.66L912.78 -32.34zM1107.64 155.16L1172.59 192.66L1172.59 267.66L1107.64 305.16L1042.69 267.66L1042.69 192.66zM1302.5 267.66L1367.45 305.16L1367.45 380.16L1302.5 417.66L1237.55 380.16L1237.55 305.16zM1367.45 155.16L1432.41 192.66L1432.41 267.66L1367.45 305.16L1302.5 267.66L1302.5 192.66zM1497.36 -69.84L1562.32 -32.34L1562.32 42.66L1497.36 80.16L1432.41 42.66L1432.41 -32.34zM1497.36 155.16L1562.32 192.66L1562.32 267.66L1497.36 305.16L1432.41 267.66L1432.41 192.66z" stroke="#03305d" stroke-width="2"></path><path d="M190.79 -69.84 a7.5 7.5 0 1 0 15 0 a7.5 7.5 0 1 0 -15 0zM255.74 -32.34 a7.5 7.5 0 1 0 15 0 a7.5 7.5 0 1 0 -15 0zM255.74 42.66 a7.5 7.5 0 1 0 15 0 a7.5 7.5 0 1 0 -15 0zM190.79 80.16 a7.5 7.5 0 1 0 15 0 a7.5 7.5 0 1 0 -15 0zM125.83 42.66 a7.5 7.5 0 1 0 15 0 a7.5 7.5 0 1 0 -15 0zM125.83 -32.34 a7.5 7.5 0 1 0 15 0 a7.5 7.5 0 1 0 -15 0zM320.69 380.16 a7.5 7.5 0 1 0 15 0 a7.5 7.5 0 1 0 -15 0zM385.65 417.66 a7.5 7.5 0 1 0 15 0 a7.5 7.5 0 1 0 -15 0zM385.65 492.66 a7.5 7.5 0 1 0 15 0 a7.5 7.5 0 1 0 -15 0zM320.69 530.16 a7.5 7.5 0 1 0 15 0 a7.5 7.5 0 1 0 -15 0zM255.74 492.66 a7.5 7.5 0 1 0 15 0 a7.5 7.5 0 1 0 -15 0zM255.74 417.66 a7.5 7.5 0 1 0 15 0 a7.5 7.5 0 1 0 -15 0zM515.56 267.66 a7.5 7.5 0 1 0 15 0 a7.5 7.5 0 1 0 -15 0zM580.51 305.16 a7.5 7.5 0 1 0 15 0 a7.5 7.5 0 1 0 -15 0zM580.51 380.16 a7.5 7.5 0 1 0 15 0 a7.5 7.5 0 1 0 -15 0zM515.56 417.66 a7.5 7.5 0 1 0 15 0 a7.5 7.5 0 1 0 -15 0zM450.6 380.16 a7.5 7.5 0 1 0 15 0 a7.5 7.5 0 1 0 -15 0zM450.6 305.16 a7.5 7.5 0 1 0 15 0 a7.5 7.5 0 1 0 -15 0zM645.46 42.66 a7.5 7.5 0 1 0 15 0 a7.5 7.5 0 1 0 -15 0zM710.42 80.16 a7.5 7.5 0 1 0 15 0 a7.5 7.5 0 1 0 -15 0zM710.42 155.16 a7.5 7.5 0 1 0 15 0 a7.5 7.5 0 1 0 -15 0zM645.46 192.66 a7.5 7.5 0 1 0 15 0 a7.5 7.5 0 1 0 -15 0zM580.51 155.16 a7.5 7.5 0 1 0 15 0 a7.5 7.5 0 1 0 -15 0zM580.51 80.16 a7.5 7.5 0 1 0 15 0 a7.5 7.5 0 1 0 -15 0zM645.46 267.66 a7.5 7.5 0 1 0 15 0 a7.5 7.5 0 1 0 -15 0zM710.42 305.16 a7.5 7.5 0 1 0 15 0 a7.5 7.5 0 1 0 -15 0zM710.42 380.16 a7.5 7.5 0 1 0 15 0 a7.5 7.5 0 1 0 -15 0zM645.46 417.66 a7.5 7.5 0 1 0 15 0 a7.5 7.5 0 1 0 -15 0zM645.46 492.66 a7.5 7.5 0 1 0 15 0 a7.5 7.5 0 1 0 -15 0zM580.51 530.16 a7.5 7.5 0 1 0 15 0 a7.5 7.5 0 1 0 -15 0zM515.56 492.66 a7.5 7.5 0 1 0 15 0 a7.5 7.5 0 1 0 -15 0zM710.42 530.16 a7.5 7.5 0 1 0 15 0 a7.5 7.5 0 1 0 -15 0zM710.42 605.16 a7.5 7.5 0 1 0 15 0 a7.5 7.5 0 1 0 -15 0zM645.46 642.66 a7.5 7.5 0 1 0 15 0 a7.5 7.5 0 1 0 -15 0zM580.51 605.16 a7.5 7.5 0 1 0 15 0 a7.5 7.5 0 1 0 -15 0zM775.37 192.66 a7.5 7.5 0 1 0 15 0 a7.5 7.5 0 1 0 -15 0zM775.37 267.66 a7.5 7.5 0 1 0 15 0 a7.5 7.5 0 1 0 -15 0zM840.32 155.16 a7.5 7.5 0 1 0 15 0 a7.5 7.5 0 1 0 -15 0zM905.28 192.66 a7.5 7.5 0 1 0 15 0 a7.5 7.5 0 1 0 -15 0zM905.28 267.66 a7.5 7.5 0 1 0 15 0 a7.5 7.5 0 1 0 -15 0zM840.32 305.16 a7.5 7.5 0 1 0 15 0 a7.5 7.5 0 1 0 -15 0zM970.23 305.16 a7.5 7.5 0 1 0 15 0 a7.5 7.5 0 1 0 -15 0zM970.23 380.16 a7.5 7.5 0 1 0 15 0 a7.5 7.5 0 1 0 -15 0zM905.28 417.66 a7.5 7.5 0 1 0 15 0 a7.5 7.5 0 1 0 -15 0zM840.32 380.16 a7.5 7.5 0 1 0 15 0 a7.5 7.5 0 1 0 -15 0zM970.23 -69.84 a7.5 7.5 0 1 0 15 0 a7.5 7.5 0 1 0 -15 0zM1035.19 -32.34 a7.5 7.5 0 1 0 15 0 a7.5 7.5 0 1 0 -15 0zM1035.19 42.66 a7.5 7.5 0 1 0 15 0 a7.5 7.5 0 1 0 -15 0zM970.23 80.16 a7.5 7.5 0 1 0 15 0 a7.5 7.5 0 1 0 -15 0zM905.28 42.66 a7.5 7.5 0 1 0 15 0 a7.5 7.5 0 1 0 -15 0zM905.28 -32.34 a7.5 7.5 0 1 0 15 0 a7.5 7.5 0 1 0 -15 0zM1100.14 155.16 a7.5 7.5 0 1 0 15 0 a7.5 7.5 0 1 0 -15 0zM1165.09 192.66 a7.5 7.5 0 1 0 15 0 a7.5 7.5 0 1 0 -15 0zM1165.09 267.66 a7.5 7.5 0 1 0 15 0 a7.5 7.5 0 1 0 -15 0zM1100.14 305.16 a7.5 7.5 0 1 0 15 0 a7.5 7.5 0 1 0 -15 0zM1035.19 267.66 a7.5 7.5 0 1 0 15 0 a7.5 7.5 0 1 0 -15 0zM1035.19 192.66 a7.5 7.5 0 1 0 15 0 a7.5 7.5 0 1 0 -15 0zM1295 267.66 a7.5 7.5 0 1 0 15 0 a7.5 7.5 0 1 0 -15 0zM1359.95 305.16 a7.5 7.5 0 1 0 15 0 a7.5 7.5 0 1 0 -15 0zM1359.95 380.16 a7.5 7.5 0 1 0 15 0 a7.5 7.5 0 1 0 -15 0zM1295 417.66 a7.5 7.5 0 1 0 15 0 a7.5 7.5 0 1 0 -15 0zM1230.05 380.16 a7.5 7.5 0 1 0 15 0 a7.5 7.5 0 1 0 -15 0zM1230.05 305.16 a7.5 7.5 0 1 0 15 0 a7.5 7.5 0 1 0 -15 0zM1359.95 155.16 a7.5 7.5 0 1 0 15 0 a7.5 7.5 0 1 0 -15 0zM1424.91 192.66 a7.5 7.5 0 1 0 15 0 a7.5 7.5 0 1 0 -15 0zM1424.91 267.66 a7.5 7.5 0 1 0 15 0 a7.5 7.5 0 1 0 -15 0zM1295 192.66 a7.5 7.5 0 1 0 15 0 a7.5 7.5 0 1 0 -15 0zM1489.86 -69.84 a7.5 7.5 0 1 0 15 0 a7.5 7.5 0 1 0 -15 0zM1554.82 -32.34 a7.5 7.5 0 1 0 15 0 a7.5 7.5 0 1 0 -15 0zM1554.82 42.66 a7.5 7.5 0 1 0 15 0 a7.5 7.5 0 1 0 -15 0zM1489.86 80.16 a7.5 7.5 0 1 0 15 0 a7.5 7.5 0 1 0 -15 0zM1424.91 42.66 a7.5 7.5 0 1 0 15 0 a7.5 7.5 0 1 0 -15 0zM1424.91 -32.34 a7.5 7.5 0 1 0 15 0 a7.5 7.5 0 1 0 -15 0zM1489.86 155.16 a7.5 7.5 0 1 0 15 0 a7.5 7.5 0 1 0 -15 0zM1554.82 192.66 a7.5 7.5 0 1 0 15 0 a7.5 7.5 0 1 0 -15 0zM1554.82 267.66 a7.5 7.5 0 1 0 15 0 a7.5 7.5 0 1 0 -15 0zM1489.86 305.16 a7.5 7.5 0 1 0 15 0 a7.5 7.5 0 1 0 -15 0z" fill="#03305d"></path><path d="M67.85 62.62L111.16 87.62L111.16 137.62L67.85 162.62L24.55 137.62L24.55 87.62zM24.55 137.62L67.85 162.62L67.85 212.62L24.55 237.62L-18.75 212.62L-18.75 162.62zM24.55 287.62L67.85 312.62L67.85 362.62L24.55 387.62L-18.75 362.62L-18.75 312.62zM111.16 137.62L154.46 162.62L154.46 212.62L111.16 237.62L67.85 212.62L67.85 162.62zM154.46 362.62L197.76 387.62L197.76 437.62L154.46 462.62L111.16 437.62L111.16 387.62zM197.76 -12.38L241.06 12.62L241.06 62.62L197.76 87.62L154.46 62.62L154.46 12.62zM197.76 287.62L241.06 312.62L241.06 362.62L197.76 387.62L154.46 362.62L154.46 312.62zM241.06 512.62L284.37 537.62L284.37 587.62L241.06 612.62L197.76 587.62L197.76 537.62zM284.37 -12.38L327.67 12.62L327.67 62.62L284.37 87.62L241.06 62.62L241.06 12.62zM284.37 137.62L327.67 162.62L327.67 212.62L284.37 237.62L241.06 212.62L241.06 162.62zM327.67 212.62L370.97 237.62L370.97 287.62L327.67 312.62L284.37 287.62L284.37 237.62zM327.67 512.62L370.97 537.62L370.97 587.62L327.67 612.62L284.37 587.62L284.37 537.62zM414.27 212.62L457.58 237.62L457.58 287.62L414.27 312.62L370.97 287.62L370.97 237.62zM370.97 287.62L414.27 312.62L414.27 362.62L370.97 387.62L327.67 362.62L327.67 312.62zM370.97 437.62L414.27 462.62L414.27 512.62L370.97 537.62L327.67 512.62L327.67 462.62zM457.58 287.62L500.88 312.62L500.88 362.62L457.58 387.62L414.27 362.62L414.27 312.62zM500.88 362.62L544.18 387.62L544.18 437.62L500.88 462.62L457.58 437.62L457.58 387.62zM500.88 512.62L544.18 537.62L544.18 587.62L500.88 612.62L457.58 587.62L457.58 537.62zM544.18 -12.38L587.48 12.62L587.48 62.62L544.18 87.62L500.88 62.62L500.88 12.62zM587.48 62.62L630.78 87.62L630.78 137.62L587.48 162.62L544.18 137.62L544.18 87.62zM544.18 137.62L587.48 162.62L587.48 212.62L544.18 237.62L500.88 212.62L500.88 162.62zM587.48 512.62L630.78 537.62L630.78 587.62L587.48 612.62L544.18 587.62L544.18 537.62zM674.09 212.62L717.39 237.62L717.39 287.62L674.09 312.62L630.78 287.62L630.78 237.62zM630.78 287.62L674.09 312.62L674.09 362.62L630.78 387.62L587.48 362.62L587.48 312.62zM760.69 62.62L804 87.62L804 137.62L760.69 162.62L717.39 137.62L717.39 87.62zM717.39 287.62L760.69 312.62L760.69 362.62L717.39 387.62L674.09 362.62L674.09 312.62zM760.69 512.62L804 537.62L804 587.62L760.69 612.62L717.39 587.62L717.39 537.62zM847.3 212.62L890.6 237.62L890.6 287.62L847.3 312.62L804 287.62L804 237.62zM847.3 362.62L890.6 387.62L890.6 437.62L847.3 462.62L804 437.62L804 387.62zM804 437.62L847.3 462.62L847.3 512.62L804 537.62L760.69 512.62L760.69 462.62zM890.6 287.62L933.9 312.62L933.9 362.62L890.6 387.62L847.3 362.62L847.3 312.62zM933.9 512.62L977.21 537.62L977.21 587.62L933.9 612.62L890.6 587.62L890.6 537.62zM1020.51 62.62L1063.81 87.62L1063.81 137.62L1020.51 162.62L977.21 137.62L977.21 87.62zM1020.51 212.62L1063.81 237.62L1063.81 287.62L1020.51 312.62L977.21 287.62L977.21 237.62zM1063.81 -12.38L1107.11 12.62L1107.11 62.62L1063.81 87.62L1020.51 62.62L1020.51 12.62zM1150.41 -12.38L1193.72 12.62L1193.72 62.62L1150.41 87.62L1107.11 62.62L1107.11 12.62zM1193.72 212.62L1237.02 237.62L1237.02 287.62L1193.72 312.62L1150.41 287.62L1150.41 237.62zM1150.41 287.62L1193.72 312.62L1193.72 362.62L1150.41 387.62L1107.11 362.62L1107.11 312.62zM1237.02 -12.38L1280.32 12.62L1280.32 62.62L1237.02 87.62L1193.72 62.62L1193.72 12.62zM1323.63 -12.38L1366.93 12.62L1366.93 62.62L1323.63 87.62L1280.32 62.62L1280.32 12.62zM1366.93 62.62L1410.23 87.62L1410.23 137.62L1366.93 162.62L1323.63 137.62L1323.63 87.62zM1323.63 287.62L1366.93 312.62L1366.93 362.62L1323.63 387.62L1280.32 362.62L1280.32 312.62zM1453.53 62.62L1496.84 87.62L1496.84 137.62L1453.53 162.62L1410.23 137.62L1410.23 87.62zM1453.53 212.62L1496.84 237.62L1496.84 287.62L1453.53 312.62L1410.23 287.62L1410.23 237.62zM1410.23 287.62L1453.53 312.62L1453.53 362.62L1410.23 387.62L1366.93 362.62L1366.93 312.62zM1453.53 512.62L1496.84 537.62L1496.84 587.62L1453.53 612.62L1410.23 587.62L1410.23 537.62z" stroke="rgba(6, 80, 156, 0.93)" stroke-width="2"></path></g><defs><mask id="SvgjsMask1000"><rect width="1440" height="560" fill="#ffffff"></rect></mask></defs></svg>