<svg xmlns="http://www.w3.org/2000/svg" version="1.1" xmlns:xlink="http://www.w3.org/1999/xlink" xmlns:svgjs="http://svgjs.dev/svgjs" width="1440" height="560" preserveAspectRatio="none" viewBox="0 0 1440 560"><g mask="url(&quot;#SvgjsMask1005&quot;)" fill="none"><rect width="1440" height="560" x="0" y="0" fill="rgba(199, 228, 186, 1)"></rect><path d="M7.52 418.45L72.47 455.95L72.47 530.95L7.52 568.45L-57.43 530.95L-57.43 455.95zM137.43 193.45L202.38 230.95L202.38 305.95L137.43 343.45L72.47 305.95L72.47 230.95zM397.24 193.45L462.2 230.95L462.2 305.95L397.24 343.45L332.29 305.95L332.29 230.95zM397.24 418.45L462.2 455.95L462.2 530.95L397.24 568.45L332.29 530.95L332.29 455.95zM592.1 80.95L657.06 118.45L657.06 193.45L592.1 230.95L527.15 193.45L527.15 118.45zM527.15 193.45L592.1 230.95L592.1 305.95L527.15 343.45L462.2 305.95L462.2 230.95zM592.1 530.95L657.06 568.45L657.06 643.45L592.1 680.95L527.15 643.45L527.15 568.45zM657.06 193.45L722.01 230.95L722.01 305.95L657.06 343.45L592.1 305.95L592.1 230.95zM916.87 418.45L981.83 455.95L981.83 530.95L916.87 568.45L851.92 530.95L851.92 455.95zM981.83 530.95L1046.78 568.45L1046.78 643.45L981.83 680.95L916.87 643.45L916.87 568.45zM1241.64 80.95L1306.59 118.45L1306.59 193.45L1241.64 230.95L1176.69 193.45L1176.69 118.45zM1371.55 305.95L1436.5 343.45L1436.5 418.45L1371.55 455.95L1306.6 418.45L1306.6 343.45zM1501.46 80.95L1566.41 118.45L1566.41 193.45L1501.46 230.95L1436.5 193.45L1436.5 118.45z" stroke="rgba(229, 162, 128, 1)" stroke-width="2"></path><path d="M0.02 418.45 a7.5 7.5 0 1 0 15 0 a7.5 7.5 0 1 0 -15 0zM64.97 455.95 a7.5 7.5 0 1 0 15 0 a7.5 7.5 0 1 0 -15 0zM64.97 530.95 a7.5 7.5 0 1 0 15 0 a7.5 7.5 0 1 0 -15 0zM0.02 568.45 a7.5 7.5 0 1 0 15 0 a7.5 7.5 0 1 0 -15 0zM-64.93 530.95 a7.5 7.5 0 1 0 15 0 a7.5 7.5 0 1 0 -15 0zM-64.93 455.95 a7.5 7.5 0 1 0 15 0 a7.5 7.5 0 1 0 -15 0zM129.93 193.45 a7.5 7.5 0 1 0 15 0 a7.5 7.5 0 1 0 -15 0zM194.88 230.95 a7.5 7.5 0 1 0 15 0 a7.5 7.5 0 1 0 -15 0zM194.88 305.95 a7.5 7.5 0 1 0 15 0 a7.5 7.5 0 1 0 -15 0zM129.93 343.45 a7.5 7.5 0 1 0 15 0 a7.5 7.5 0 1 0 -15 0zM64.97 305.95 a7.5 7.5 0 1 0 15 0 a7.5 7.5 0 1 0 -15 0zM64.97 230.95 a7.5 7.5 0 1 0 15 0 a7.5 7.5 0 1 0 -15 0zM389.74 193.45 a7.5 7.5 0 1 0 15 0 a7.5 7.5 0 1 0 -15 0zM454.7 230.95 a7.5 7.5 0 1 0 15 0 a7.5 7.5 0 1 0 -15 0zM454.7 305.95 a7.5 7.5 0 1 0 15 0 a7.5 7.5 0 1 0 -15 0zM389.74 343.45 a7.5 7.5 0 1 0 15 0 a7.5 7.5 0 1 0 -15 0zM324.79 305.95 a7.5 7.5 0 1 0 15 0 a7.5 7.5 0 1 0 -15 0zM324.79 230.95 a7.5 7.5 0 1 0 15 0 a7.5 7.5 0 1 0 -15 0zM389.74 418.45 a7.5 7.5 0 1 0 15 0 a7.5 7.5 0 1 0 -15 0zM454.7 455.95 a7.5 7.5 0 1 0 15 0 a7.5 7.5 0 1 0 -15 0zM454.7 530.95 a7.5 7.5 0 1 0 15 0 a7.5 7.5 0 1 0 -15 0zM389.74 568.45 a7.5 7.5 0 1 0 15 0 a7.5 7.5 0 1 0 -15 0zM324.79 530.95 a7.5 7.5 0 1 0 15 0 a7.5 7.5 0 1 0 -15 0zM324.79 455.95 a7.5 7.5 0 1 0 15 0 a7.5 7.5 0 1 0 -15 0zM584.6 80.95 a7.5 7.5 0 1 0 15 0 a7.5 7.5 0 1 0 -15 0zM649.56 118.45 a7.5 7.5 0 1 0 15 0 a7.5 7.5 0 1 0 -15 0zM649.56 193.45 a7.5 7.5 0 1 0 15 0 a7.5 7.5 0 1 0 -15 0zM584.6 230.95 a7.5 7.5 0 1 0 15 0 a7.5 7.5 0 1 0 -15 0zM519.65 193.45 a7.5 7.5 0 1 0 15 0 a7.5 7.5 0 1 0 -15 0zM519.65 118.45 a7.5 7.5 0 1 0 15 0 a7.5 7.5 0 1 0 -15 0zM584.6 305.95 a7.5 7.5 0 1 0 15 0 a7.5 7.5 0 1 0 -15 0zM519.65 343.45 a7.5 7.5 0 1 0 15 0 a7.5 7.5 0 1 0 -15 0zM584.6 530.95 a7.5 7.5 0 1 0 15 0 a7.5 7.5 0 1 0 -15 0zM649.56 568.45 a7.5 7.5 0 1 0 15 0 a7.5 7.5 0 1 0 -15 0zM649.56 643.45 a7.5 7.5 0 1 0 15 0 a7.5 7.5 0 1 0 -15 0zM584.6 680.95 a7.5 7.5 0 1 0 15 0 a7.5 7.5 0 1 0 -15 0zM519.65 643.45 a7.5 7.5 0 1 0 15 0 a7.5 7.5 0 1 0 -15 0zM519.65 568.45 a7.5 7.5 0 1 0 15 0 a7.5 7.5 0 1 0 -15 0zM714.51 230.95 a7.5 7.5 0 1 0 15 0 a7.5 7.5 0 1 0 -15 0zM714.51 305.95 a7.5 7.5 0 1 0 15 0 a7.5 7.5 0 1 0 -15 0zM649.56 343.45 a7.5 7.5 0 1 0 15 0 a7.5 7.5 0 1 0 -15 0zM909.37 418.45 a7.5 7.5 0 1 0 15 0 a7.5 7.5 0 1 0 -15 0zM974.33 455.95 a7.5 7.5 0 1 0 15 0 a7.5 7.5 0 1 0 -15 0zM974.33 530.95 a7.5 7.5 0 1 0 15 0 a7.5 7.5 0 1 0 -15 0zM909.37 568.45 a7.5 7.5 0 1 0 15 0 a7.5 7.5 0 1 0 -15 0zM844.42 530.95 a7.5 7.5 0 1 0 15 0 a7.5 7.5 0 1 0 -15 0zM844.42 455.95 a7.5 7.5 0 1 0 15 0 a7.5 7.5 0 1 0 -15 0zM1039.28 568.45 a7.5 7.5 0 1 0 15 0 a7.5 7.5 0 1 0 -15 0zM1039.28 643.45 a7.5 7.5 0 1 0 15 0 a7.5 7.5 0 1 0 -15 0zM974.33 680.95 a7.5 7.5 0 1 0 15 0 a7.5 7.5 0 1 0 -15 0zM909.37 643.45 a7.5 7.5 0 1 0 15 0 a7.5 7.5 0 1 0 -15 0zM1234.14 80.95 a7.5 7.5 0 1 0 15 0 a7.5 7.5 0 1 0 -15 0zM1299.09 118.45 a7.5 7.5 0 1 0 15 0 a7.5 7.5 0 1 0 -15 0zM1299.09 193.45 a7.5 7.5 0 1 0 15 0 a7.5 7.5 0 1 0 -15 0zM1234.14 230.95 a7.5 7.5 0 1 0 15 0 a7.5 7.5 0 1 0 -15 0zM1169.19 193.45 a7.5 7.5 0 1 0 15 0 a7.5 7.5 0 1 0 -15 0zM1169.19 118.45 a7.5 7.5 0 1 0 15 0 a7.5 7.5 0 1 0 -15 0zM1364.05 305.95 a7.5 7.5 0 1 0 15 0 a7.5 7.5 0 1 0 -15 0zM1429 343.45 a7.5 7.5 0 1 0 15 0 a7.5 7.5 0 1 0 -15 0zM1429 418.45 a7.5 7.5 0 1 0 15 0 a7.5 7.5 0 1 0 -15 0zM1364.05 455.95 a7.5 7.5 0 1 0 15 0 a7.5 7.5 0 1 0 -15 0zM1299.1 418.45 a7.5 7.5 0 1 0 15 0 a7.5 7.5 0 1 0 -15 0zM1299.1 343.45 a7.5 7.5 0 1 0 15 0 a7.5 7.5 0 1 0 -15 0zM1493.96 80.95 a7.5 7.5 0 1 0 15 0 a7.5 7.5 0 1 0 -15 0zM1558.91 118.45 a7.5 7.5 0 1 0 15 0 a7.5 7.5 0 1 0 -15 0zM1558.91 193.45 a7.5 7.5 0 1 0 15 0 a7.5 7.5 0 1 0 -15 0zM1493.96 230.95 a7.5 7.5 0 1 0 15 0 a7.5 7.5 0 1 0 -15 0zM1429 193.45 a7.5 7.5 0 1 0 15 0 a7.5 7.5 0 1 0 -15 0zM1429 118.45 a7.5 7.5 0 1 0 15 0 a7.5 7.5 0 1 0 -15 0z" fill="rgba(229, 162, 128, 1)"></path><path d="M8.39 -31.66L51.69 -6.66L51.69 43.34L8.39 68.34L-34.91 43.34L-34.91 -6.66zM51.69 43.34L95 68.34L95 118.34L51.69 143.34L8.39 118.34L8.39 68.34zM8.39 118.34L51.69 143.34L51.69 193.34L8.39 218.34L-34.91 193.34L-34.91 143.34zM8.39 268.34L51.69 293.34L51.69 343.34L8.39 368.34L-34.91 343.34L-34.91 293.34zM51.69 343.34L95 368.34L95 418.34L51.69 443.34L8.39 418.34L8.39 368.34zM8.39 418.34L51.69 443.34L51.69 493.34L8.39 518.34L-34.91 493.34L-34.91 443.34zM138.3 193.34L181.6 218.34L181.6 268.34L138.3 293.34L95 268.34L95 218.34zM95 268.34L138.3 293.34L138.3 343.34L95 368.34L51.69 343.34L51.69 293.34zM95 418.34L138.3 443.34L138.3 493.34L95 518.34L51.69 493.34L51.69 443.34zM138.3 493.34L181.6 518.34L181.6 568.34L138.3 593.34L95 568.34L95 518.34zM181.6 -31.66L224.9 -6.66L224.9 43.34L181.6 68.34L138.3 43.34L138.3 -6.66zM224.9 193.34L268.2 218.34L268.2 268.34L224.9 293.34L181.6 268.34L181.6 218.34zM181.6 268.34L224.9 293.34L224.9 343.34L181.6 368.34L138.3 343.34L138.3 293.34zM181.6 418.34L224.9 443.34L224.9 493.34L181.6 518.34L138.3 493.34L138.3 443.34zM224.9 493.34L268.2 518.34L268.2 568.34L224.9 593.34L181.6 568.34L181.6 518.34zM268.2 -31.66L311.51 -6.66L311.51 43.34L268.2 68.34L224.9 43.34L224.9 -6.66zM268.2 118.34L311.51 143.34L311.51 193.34L268.2 218.34L224.9 193.34L224.9 143.34zM311.51 193.34L354.81 218.34L354.81 268.34L311.51 293.34L268.2 268.34L268.2 218.34zM354.81 -31.66L398.11 -6.66L398.11 43.34L354.81 68.34L311.51 43.34L311.51 -6.66zM398.11 193.34L441.42 218.34L441.42 268.34L398.11 293.34L354.81 268.34L354.81 218.34zM398.11 343.34L441.42 368.34L441.42 418.34L398.11 443.34L354.81 418.34L354.81 368.34zM484.72 43.34L528.02 68.34L528.02 118.34L484.72 143.34L441.42 118.34L441.42 68.34zM441.42 118.34L484.72 143.34L484.72 193.34L441.42 218.34L398.11 193.34L398.11 143.34zM441.42 268.34L484.72 293.34L484.72 343.34L441.42 368.34L398.11 343.34L398.11 293.34zM571.32 43.34L614.63 68.34L614.63 118.34L571.32 143.34L528.02 118.34L528.02 68.34zM571.32 193.34L614.63 218.34L614.63 268.34L571.32 293.34L528.02 268.34L528.02 218.34zM528.02 268.34L571.32 293.34L571.32 343.34L528.02 368.34L484.72 343.34L484.72 293.34zM571.32 343.34L614.63 368.34L614.63 418.34L571.32 443.34L528.02 418.34L528.02 368.34zM614.63 -31.66L657.93 -6.66L657.93 43.34L614.63 68.34L571.32 43.34L571.32 -6.66zM657.93 193.34L701.23 218.34L701.23 268.34L657.93 293.34L614.63 268.34L614.63 218.34zM614.63 268.34L657.93 293.34L657.93 343.34L614.63 368.34L571.32 343.34L571.32 293.34zM657.93 343.34L701.23 368.34L701.23 418.34L657.93 443.34L614.63 418.34L614.63 368.34zM657.93 493.34L701.23 518.34L701.23 568.34L657.93 593.34L614.63 568.34L614.63 518.34zM744.53 43.34L787.84 68.34L787.84 118.34L744.53 143.34L701.23 118.34L701.23 68.34zM701.23 268.34L744.53 293.34L744.53 343.34L701.23 368.34L657.93 343.34L657.93 293.34zM744.53 493.34L787.84 518.34L787.84 568.34L744.53 593.34L701.23 568.34L701.23 518.34zM787.84 -31.66L831.14 -6.66L831.14 43.34L787.84 68.34L744.53 43.34L744.53 -6.66zM831.14 43.34L874.44 68.34L874.44 118.34L831.14 143.34L787.84 118.34L787.84 68.34zM787.84 118.34L831.14 143.34L831.14 193.34L787.84 218.34L744.53 193.34L744.53 143.34zM831.14 493.34L874.44 518.34L874.44 568.34L831.14 593.34L787.84 568.34L787.84 518.34zM874.44 -31.66L917.74 -6.66L917.74 43.34L874.44 68.34L831.14 43.34L831.14 -6.66zM917.74 43.34L961.05 68.34L961.05 118.34L917.74 143.34L874.44 118.34L874.44 68.34zM917.74 193.34L961.05 218.34L961.05 268.34L917.74 293.34L874.44 268.34L874.44 218.34zM917.74 343.34L961.05 368.34L961.05 418.34L917.74 443.34L874.44 418.34L874.44 368.34zM917.74 493.34L961.05 518.34L961.05 568.34L917.74 593.34L874.44 568.34L874.44 518.34zM961.05 -31.66L1004.35 -6.66L1004.35 43.34L961.05 68.34L917.74 43.34L917.74 -6.66zM1004.35 43.34L1047.65 68.34L1047.65 118.34L1004.35 143.34L961.05 118.34L961.05 68.34zM961.05 118.34L1004.35 143.34L1004.35 193.34L961.05 218.34L917.74 193.34L917.74 143.34zM1004.35 193.34L1047.65 218.34L1047.65 268.34L1004.35 293.34L961.05 268.34L961.05 218.34zM1004.35 343.34L1047.65 368.34L1047.65 418.34L1004.35 443.34L961.05 418.34L961.05 368.34zM961.05 418.34L1004.35 443.34L1004.35 493.34L961.05 518.34L917.74 493.34L917.74 443.34zM1047.65 -31.66L1090.95 -6.66L1090.95 43.34L1047.65 68.34L1004.35 43.34L1004.35 -6.66zM1090.95 43.34L1134.26 68.34L1134.26 118.34L1090.95 143.34L1047.65 118.34L1047.65 68.34zM1090.95 193.34L1134.26 218.34L1134.26 268.34L1090.95 293.34L1047.65 268.34L1047.65 218.34zM1047.65 268.34L1090.95 293.34L1090.95 343.34L1047.65 368.34L1004.35 343.34L1004.35 293.34zM1047.65 418.34L1090.95 443.34L1090.95 493.34L1047.65 518.34L1004.35 493.34L1004.35 443.34zM1134.26 -31.66L1177.56 -6.66L1177.56 43.34L1134.26 68.34L1090.95 43.34L1090.95 -6.66zM1177.56 43.34L1220.86 68.34L1220.86 118.34L1177.56 143.34L1134.26 118.34L1134.26 68.34zM1134.26 118.34L1177.56 143.34L1177.56 193.34L1134.26 218.34L1090.95 193.34L1090.95 143.34zM1177.56 193.34L1220.86 218.34L1220.86 268.34L1177.56 293.34L1134.26 268.34L1134.26 218.34zM1220.86 -31.66L1264.16 -6.66L1264.16 43.34L1220.86 68.34L1177.56 43.34L1177.56 -6.66zM1264.16 43.34L1307.47 68.34L1307.47 118.34L1264.16 143.34L1220.86 118.34L1220.86 68.34zM1220.86 118.34L1264.16 143.34L1264.16 193.34L1220.86 218.34L1177.56 193.34L1177.56 143.34zM1264.16 193.34L1307.47 218.34L1307.47 268.34L1264.16 293.34L1220.86 268.34L1220.86 218.34zM1220.86 268.34L1264.16 293.34L1264.16 343.34L1220.86 368.34L1177.56 343.34L1177.56 293.34zM1264.16 343.34L1307.47 368.34L1307.47 418.34L1264.16 443.34L1220.86 418.34L1220.86 368.34zM1307.47 268.34L1350.77 293.34L1350.77 343.34L1307.47 368.34L1264.16 343.34L1264.16 293.34zM1350.77 343.34L1394.07 368.34L1394.07 418.34L1350.77 443.34L1307.47 418.34L1307.47 368.34zM1394.07 -31.66L1437.37 -6.66L1437.37 43.34L1394.07 68.34L1350.77 43.34L1350.77 -6.66zM1437.37 43.34L1480.68 68.34L1480.68 118.34L1437.37 143.34L1394.07 118.34L1394.07 68.34zM1437.37 193.34L1480.68 218.34L1480.68 268.34L1437.37 293.34L1394.07 268.34L1394.07 218.34zM1394.07 268.34L1437.37 293.34L1437.37 343.34L1394.07 368.34L1350.77 343.34L1350.77 293.34zM1394.07 418.34L1437.37 443.34L1437.37 493.34L1394.07 518.34L1350.77 493.34L1350.77 443.34zM1437.37 493.34L1480.68 518.34L1480.68 568.34L1437.37 593.34L1394.07 568.34L1394.07 518.34z" stroke="rgba(8, 202, 108, 0.58)" stroke-width="2"></path></g><defs><mask id="SvgjsMask1005"><rect width="1440" height="560" fill="#ffffff"></rect></mask></defs></svg>