<svg xmlns="http://www.w3.org/2000/svg" version="1.1" xmlns:xlink="http://www.w3.org/1999/xlink" xmlns:svgjs="http://svgjs.dev/svgjs" width="1440" height="560" preserveAspectRatio="none" viewBox="0 0 1440 560"><g mask="url(&quot;#SvgjsMask2987&quot;)" fill="none"><rect width="1440" height="560" x="0" y="0" fill="url(&quot;#SvgjsLinearGradient2988&quot;)"></rect><path d="M799 503L798 913" stroke-width="6" stroke="url(&quot;#SvgjsLinearGradient2989&quot;)" stroke-linecap="round" class="Up"></path><path d="M492 139L491 333" stroke-width="6" stroke="url(&quot;#SvgjsLinearGradient2990&quot;)" stroke-linecap="round" class="Down"></path><path d="M50 309L49 727" stroke-width="6" stroke="url(&quot;#SvgjsLinearGradient2989&quot;)" stroke-linecap="round" class="Up"></path><path d="M1278 361L1277 676" stroke-width="6" stroke="url(&quot;#SvgjsLinearGradient2989&quot;)" stroke-linecap="round" class="Up"></path><path d="M419 6L418 216" stroke-width="10" stroke="url(&quot;#SvgjsLinearGradient2989&quot;)" stroke-linecap="round" class="Up"></path><path d="M486 326L485 2" stroke-width="8" stroke="url(&quot;#SvgjsLinearGradient2990&quot;)" stroke-linecap="round" class="Down"></path><path d="M881 172L880 -201" stroke-width="8" stroke="url(&quot;#SvgjsLinearGradient2989&quot;)" stroke-linecap="round" class="Up"></path><path d="M865 466L864 633" stroke-width="10" stroke="url(&quot;#SvgjsLinearGradient2989&quot;)" stroke-linecap="round" class="Up"></path><path d="M524 403L523 19" stroke-width="8" stroke="url(&quot;#SvgjsLinearGradient2990&quot;)" stroke-linecap="round" class="Down"></path><path d="M1102 166L1101 443" stroke-width="6" stroke="url(&quot;#SvgjsLinearGradient2990&quot;)" stroke-linecap="round" class="Down"></path><path d="M1311 312L1310 461" stroke-width="10" stroke="url(&quot;#SvgjsLinearGradient2990&quot;)" stroke-linecap="round" class="Down"></path><path d="M1118 68L1117 324" stroke-width="10" stroke="url(&quot;#SvgjsLinearGradient2989&quot;)" stroke-linecap="round" class="Up"></path><path d="M414 143L413 0" stroke-width="10" stroke="url(&quot;#SvgjsLinearGradient2990&quot;)" stroke-linecap="round" class="Down"></path><path d="M781 204L780 -71" stroke-width="10" stroke="url(&quot;#SvgjsLinearGradient2990&quot;)" stroke-linecap="round" class="Down"></path><path d="M498 454L497 731" stroke-width="6" stroke="url(&quot;#SvgjsLinearGradient2990&quot;)" stroke-linecap="round" class="Down"></path><path d="M714 391L713 169" stroke-width="10" stroke="url(&quot;#SvgjsLinearGradient2989&quot;)" stroke-linecap="round" class="Up"></path><path d="M58 137L57 497" stroke-width="6" stroke="url(&quot;#SvgjsLinearGradient2989&quot;)" stroke-linecap="round" class="Up"></path><path d="M105 86L104 -103" stroke-width="10" stroke="url(&quot;#SvgjsLinearGradient2989&quot;)" stroke-linecap="round" class="Up"></path><path d="M252 429L251 116" stroke-width="10" stroke="url(&quot;#SvgjsLinearGradient2989&quot;)" stroke-linecap="round" class="Up"></path><path d="M1023 139L1022 540" stroke-width="10" stroke="url(&quot;#SvgjsLinearGradient2989&quot;)" stroke-linecap="round" class="Up"></path><path d="M1346 298L1345 713" stroke-width="8" stroke="url(&quot;#SvgjsLinearGradient2990&quot;)" stroke-linecap="round" class="Down"></path><path d="M849 175L848 532" stroke-width="6" stroke="url(&quot;#SvgjsLinearGradient2990&quot;)" stroke-linecap="round" class="Down"></path><path d="M406 350L405 47" stroke-width="8" stroke="url(&quot;#SvgjsLinearGradient2990&quot;)" stroke-linecap="round" class="Down"></path><path d="M543 419L542 636" stroke-width="8" stroke="url(&quot;#SvgjsLinearGradient2990&quot;)" stroke-linecap="round" class="Down"></path><path d="M879 307L878 -40" stroke-width="6" stroke="url(&quot;#SvgjsLinearGradient2989&quot;)" stroke-linecap="round" class="Up"></path><path d="M536 16L535 387" stroke-width="10" stroke="url(&quot;#SvgjsLinearGradient2989&quot;)" stroke-linecap="round" class="Up"></path><path d="M1054 387L1053 553" stroke-width="8" stroke="url(&quot;#SvgjsLinearGradient2990&quot;)" stroke-linecap="round" class="Down"></path><path d="M466 400L465 43" stroke-width="6" stroke="url(&quot;#SvgjsLinearGradient2989&quot;)" stroke-linecap="round" class="Up"></path><path d="M146 288L145 674" stroke-width="6" stroke="url(&quot;#SvgjsLinearGradient2990&quot;)" stroke-linecap="round" class="Down"></path><path d="M74 466L73 753" stroke-width="8" stroke="url(&quot;#SvgjsLinearGradient2990&quot;)" stroke-linecap="round" class="Down"></path><path d="M563 419L562 786" stroke-width="8" stroke="url(&quot;#SvgjsLinearGradient2990&quot;)" stroke-linecap="round" class="Down"></path><path d="M996 462L995 623" stroke-width="10" stroke="url(&quot;#SvgjsLinearGradient2990&quot;)" stroke-linecap="round" class="Down"></path><path d="M427 477L426 152" stroke-width="6" stroke="url(&quot;#SvgjsLinearGradient2989&quot;)" stroke-linecap="round" class="Up"></path><path d="M366 290L365 150" stroke-width="6" stroke="url(&quot;#SvgjsLinearGradient2990&quot;)" stroke-linecap="round" class="Down"></path><path d="M938 41L937 351" stroke-width="8" stroke="url(&quot;#SvgjsLinearGradient2989&quot;)" stroke-linecap="round" class="Up"></path><path d="M328 31L327 -123" stroke-width="10" stroke="url(&quot;#SvgjsLinearGradient2990&quot;)" stroke-linecap="round" class="Down"></path></g><defs><mask id="SvgjsMask2987"><rect width="1440" height="560" fill="#ffffff"></rect></mask><linearGradient x1="84.72%" y1="-39.29%" x2="15.28%" y2="139.29%" gradientUnits="userSpaceOnUse" id="SvgjsLinearGradient2988"><stop stop-color="#0e2a47" offset="0"></stop><stop stop-color="rgba(138, 203, 216, 1)" offset="1"></stop></linearGradient><linearGradient x1="0%" y1="100%" x2="0%" y2="0%" id="SvgjsLinearGradient2989"><stop stop-color="rgba(160, 192, 227, 0)" offset="0"></stop><stop stop-color="rgba(160, 192, 227, 1)" offset="1"></stop></linearGradient><linearGradient x1="0%" y1="0%" x2="0%" y2="100%" id="SvgjsLinearGradient2990"><stop stop-color="rgba(160, 192, 227, 0)" offset="0"></stop><stop stop-color="rgba(160, 192, 227, 1)" offset="1"></stop></linearGradient></defs></svg>