<svg xmlns="http://www.w3.org/2000/svg" version="1.1" xmlns:xlink="http://www.w3.org/1999/xlink" xmlns:svgjs="http://svgjs.dev/svgjs" width="1440" height="560" preserveAspectRatio="none" viewBox="0 0 1440 560"><g mask="url(&quot;#SvgjsMask1018&quot;)" fill="none"><rect width="1440" height="560" x="0" y="0" fill="rgba(254, 254, 255, 1)"></rect><path d="M-68.68 353.11L-68.68 353.11" stroke="rgba(149, 156, 169, 1)" stroke-width="1.5"></path><path d="M-68.68 353.11L104.47 382.14" stroke="rgba(149, 156, 169, 1)" stroke-width="1.5"></path><path d="M-68.68 353.11L-110.13 538.39" stroke="rgba(149, 156, 169, 1)" stroke-width="1.5"></path><path d="M-68.68 353.11L51.5 518.46" stroke="rgba(149, 156, 169, 1)" stroke-width="1.5"></path><path d="M-68.68 353.11L209.01 387.51" stroke="rgba(149, 156, 169, 1)" stroke-width="1.5"></path><path d="M-110.13 538.39L-110.13 538.39" stroke="rgba(149, 156, 169, 1)" stroke-width="1.5"></path><path d="M-110.13 538.39L-86.09 669.55" stroke="rgba(149, 156, 169, 1)" stroke-width="1.5"></path><path d="M-110.13 538.39L51.5 518.46" stroke="rgba(149, 156, 169, 1)" stroke-width="1.5"></path><path d="M-110.13 538.39L70.73 674.77" stroke="rgba(149, 156, 169, 1)" stroke-width="1.5"></path><path d="M-86.09 669.55L-86.09 669.55" stroke="rgba(149, 156, 169, 1)" stroke-width="1.5"></path><path d="M-86.09 669.55L70.73 674.77" stroke="rgba(149, 156, 169, 1)" stroke-width="1.5"></path><path d="M-86.09 669.55L51.5 518.46" stroke="rgba(149, 156, 169, 1)" stroke-width="1.5"></path><path d="M104.47 382.14L104.47 382.14" stroke="rgba(149, 156, 169, 1)" stroke-width="1.5"></path><path d="M104.47 382.14L209.01 387.51" stroke="rgba(149, 156, 169, 1)" stroke-width="1.5"></path><path d="M104.47 382.14L51.5 518.46" stroke="rgba(149, 156, 169, 1)" stroke-width="1.5"></path><path d="M51.5 518.46L51.5 518.46" stroke="rgba(149, 156, 169, 1)" stroke-width="1.5"></path><path d="M51.5 518.46L70.73 674.77" stroke="rgba(149, 156, 169, 1)" stroke-width="1.5"></path><path d="M51.5 518.46L212.31 494.98" stroke="rgba(149, 156, 169, 1)" stroke-width="1.5"></path><path d="M70.73 674.77L70.73 674.77" stroke="rgba(149, 156, 169, 1)" stroke-width="1.5"></path><path d="M70.73 674.77L252.94 710.62" stroke="rgba(149, 156, 169, 1)" stroke-width="1.5"></path><path d="M209.01 387.51L209.01 387.51" stroke="rgba(149, 156, 169, 1)" stroke-width="1.5"></path><path d="M209.01 387.51L212.31 494.98" stroke="rgba(149, 156, 169, 1)" stroke-width="1.5"></path><path d="M209.01 387.51L341.04 519.12" stroke="rgba(149, 156, 169, 1)" stroke-width="1.5"></path><path d="M209.01 387.51L412.27 388.95" stroke="rgba(149, 156, 169, 1)" stroke-width="1.5"></path><path d="M209.01 387.51L51.5 518.46" stroke="rgba(149, 156, 169, 1)" stroke-width="1.5"></path><path d="M212.31 494.98L212.31 494.98" stroke="rgba(149, 156, 169, 1)" stroke-width="1.5"></path><path d="M212.31 494.98L341.04 519.12" stroke="rgba(149, 156, 169, 1)" stroke-width="1.5"></path><path d="M252.94 710.62L252.94 710.62" stroke="rgba(149, 156, 169, 1)" stroke-width="1.5"></path><path d="M252.94 710.62L405.08 664.38" stroke="rgba(149, 156, 169, 1)" stroke-width="1.5"></path><path d="M252.94 710.62L341.04 519.12" stroke="rgba(149, 156, 169, 1)" stroke-width="1.5"></path><path d="M252.94 710.62L212.31 494.98" stroke="rgba(149, 156, 169, 1)" stroke-width="1.5"></path><path d="M412.27 388.95L412.27 388.95" stroke="rgba(149, 156, 169, 1)" stroke-width="1.5"></path><path d="M412.27 388.95L527.9 396.44" stroke="rgba(149, 156, 169, 1)" stroke-width="1.5"></path><path d="M412.27 388.95L341.04 519.12" stroke="rgba(149, 156, 169, 1)" stroke-width="1.5"></path><path d="M412.27 388.95L530.82 503.18" stroke="rgba(149, 156, 169, 1)" stroke-width="1.5"></path><path d="M341.04 519.12L341.04 519.12" stroke="rgba(149, 156, 169, 1)" stroke-width="1.5"></path><path d="M341.04 519.12L405.08 664.38" stroke="rgba(149, 156, 169, 1)" stroke-width="1.5"></path><path d="M405.08 664.38L405.08 664.38" stroke="rgba(149, 156, 169, 1)" stroke-width="1.5"></path><path d="M405.08 664.38L489.51 662.83" stroke="rgba(149, 156, 169, 1)" stroke-width="1.5"></path><path d="M527.9 396.44L527.9 396.44" stroke="rgba(149, 156, 169, 1)" stroke-width="1.5"></path><path d="M527.9 396.44L530.82 503.18" stroke="rgba(149, 156, 169, 1)" stroke-width="1.5"></path><path d="M527.9 396.44L667.48 357.14" stroke="rgba(149, 156, 169, 1)" stroke-width="1.5"></path><path d="M530.82 503.18L530.82 503.18" stroke="rgba(149, 156, 169, 1)" stroke-width="1.5"></path><path d="M530.82 503.18L657.47 516.31" stroke="rgba(149, 156, 169, 1)" stroke-width="1.5"></path><path d="M530.82 503.18L489.51 662.83" stroke="rgba(149, 156, 169, 1)" stroke-width="1.5"></path><path d="M530.82 503.18L341.04 519.12" stroke="rgba(149, 156, 169, 1)" stroke-width="1.5"></path><path d="M530.82 503.18L667.48 357.14" stroke="rgba(149, 156, 169, 1)" stroke-width="1.5"></path><path d="M489.51 662.83L489.51 662.83" stroke="rgba(149, 156, 169, 1)" stroke-width="1.5"></path><path d="M489.51 662.83L653.15 669.32" stroke="rgba(149, 156, 169, 1)" stroke-width="1.5"></path><path d="M489.51 662.83L341.04 519.12" stroke="rgba(149, 156, 169, 1)" stroke-width="1.5"></path><path d="M489.51 662.83L657.47 516.31" stroke="rgba(149, 156, 169, 1)" stroke-width="1.5"></path><path d="M489.51 662.83L252.94 710.62" stroke="rgba(149, 156, 169, 1)" stroke-width="1.5"></path><path d="M676.91 229.3L676.91 229.3" stroke="rgba(149, 156, 169, 1)" stroke-width="1.5"></path><path d="M676.91 229.3L667.48 357.14" stroke="rgba(149, 156, 169, 1)" stroke-width="1.5"></path><path d="M676.91 229.3L861.19 191.44" stroke="rgba(149, 156, 169, 1)" stroke-width="1.5"></path><path d="M676.91 229.3L838.02 364.9" stroke="rgba(149, 156, 169, 1)" stroke-width="1.5"></path><path d="M676.91 229.3L835.67 90.86" stroke="rgba(149, 156, 169, 1)" stroke-width="1.5"></path><path d="M667.48 357.14L667.48 357.14" stroke="rgba(149, 156, 169, 1)" stroke-width="1.5"></path><path d="M667.48 357.14L657.47 516.31" stroke="rgba(149, 156, 169, 1)" stroke-width="1.5"></path><path d="M667.48 357.14L838.02 364.9" stroke="rgba(149, 156, 169, 1)" stroke-width="1.5"></path><path d="M657.47 516.31L657.47 516.31" stroke="rgba(149, 156, 169, 1)" stroke-width="1.5"></path><path d="M657.47 516.31L653.15 669.32" stroke="rgba(149, 156, 169, 1)" stroke-width="1.5"></path><path d="M657.47 516.31L527.9 396.44" stroke="rgba(149, 156, 169, 1)" stroke-width="1.5"></path><path d="M657.47 516.31L847.11 507.76" stroke="rgba(149, 156, 169, 1)" stroke-width="1.5"></path><path d="M653.15 669.32L653.15 669.32" stroke="rgba(149, 156, 169, 1)" stroke-width="1.5"></path><path d="M835.67 90.86L835.67 90.86" stroke="rgba(149, 156, 169, 1)" stroke-width="1.5"></path><path d="M835.67 90.86L861.19 191.44" stroke="rgba(149, 156, 169, 1)" stroke-width="1.5"></path><path d="M835.67 90.86L997.04 60" stroke="rgba(149, 156, 169, 1)" stroke-width="1.5"></path><path d="M835.67 90.86L963.61 259.96" stroke="rgba(149, 156, 169, 1)" stroke-width="1.5"></path><path d="M861.19 191.44L861.19 191.44" stroke="rgba(149, 156, 169, 1)" stroke-width="1.5"></path><path d="M861.19 191.44L963.61 259.96" stroke="rgba(149, 156, 169, 1)" stroke-width="1.5"></path><path d="M861.19 191.44L838.02 364.9" stroke="rgba(149, 156, 169, 1)" stroke-width="1.5"></path><path d="M861.19 191.44L997.04 60" stroke="rgba(149, 156, 169, 1)" stroke-width="1.5"></path><path d="M861.19 191.44L979.95 385.53" stroke="rgba(149, 156, 169, 1)" stroke-width="1.5"></path><path d="M838.02 364.9L838.02 364.9" stroke="rgba(149, 156, 169, 1)" stroke-width="1.5"></path><path d="M838.02 364.9L847.11 507.76" stroke="rgba(149, 156, 169, 1)" stroke-width="1.5"></path><path d="M847.11 507.76L847.11 507.76" stroke="rgba(149, 156, 169, 1)" stroke-width="1.5"></path><path d="M847.11 507.76L937.82 543.11" stroke="rgba(149, 156, 169, 1)" stroke-width="1.5"></path><path d="M847.11 507.76L979.95 385.53" stroke="rgba(149, 156, 169, 1)" stroke-width="1.5"></path><path d="M824.42 712.37L824.42 712.37" stroke="rgba(149, 156, 169, 1)" stroke-width="1.5"></path><path d="M824.42 712.37L653.15 669.32" stroke="rgba(149, 156, 169, 1)" stroke-width="1.5"></path><path d="M824.42 712.37L1008.6 701.06" stroke="rgba(149, 156, 169, 1)" stroke-width="1.5"></path><path d="M824.42 712.37L937.82 543.11" stroke="rgba(149, 156, 169, 1)" stroke-width="1.5"></path><path d="M997.75 -75.84L997.75 -75.84" stroke="rgba(149, 156, 169, 1)" stroke-width="1.5"></path><path d="M997.75 -75.84L1088.31 -109.15" stroke="rgba(149, 156, 169, 1)" stroke-width="1.5"></path><path d="M997.75 -75.84L997.04 60" stroke="rgba(149, 156, 169, 1)" stroke-width="1.5"></path><path d="M997.75 -75.84L1114.59 45.83" stroke="rgba(149, 156, 169, 1)" stroke-width="1.5"></path><path d="M997.75 -75.84L835.67 90.86" stroke="rgba(149, 156, 169, 1)" stroke-width="1.5"></path><path d="M997.75 -75.84L1275.99 -63.37" stroke="rgba(149, 156, 169, 1)" stroke-width="1.5"></path><path d="M997.75 -75.84L861.19 191.44" stroke="rgba(149, 156, 169, 1)" stroke-width="1.5"></path><path d="M997.04 60L997.04 60" stroke="rgba(149, 156, 169, 1)" stroke-width="1.5"></path><path d="M997.04 60L1114.59 45.83" stroke="rgba(149, 156, 169, 1)" stroke-width="1.5"></path><path d="M963.61 259.96L963.61 259.96" stroke="rgba(149, 156, 169, 1)" stroke-width="1.5"></path><path d="M963.61 259.96L979.95 385.53" stroke="rgba(149, 156, 169, 1)" stroke-width="1.5"></path><path d="M963.61 259.96L1121.66 248.22" stroke="rgba(149, 156, 169, 1)" stroke-width="1.5"></path><path d="M963.61 259.96L838.02 364.9" stroke="rgba(149, 156, 169, 1)" stroke-width="1.5"></path><path d="M979.95 385.53L979.95 385.53" stroke="rgba(149, 156, 169, 1)" stroke-width="1.5"></path><path d="M979.95 385.53L838.02 364.9" stroke="rgba(149, 156, 169, 1)" stroke-width="1.5"></path><path d="M979.95 385.53L937.82 543.11" stroke="rgba(149, 156, 169, 1)" stroke-width="1.5"></path><path d="M979.95 385.53L1157.68 374.19" stroke="rgba(149, 156, 169, 1)" stroke-width="1.5"></path><path d="M937.82 543.11L937.82 543.11" stroke="rgba(149, 156, 169, 1)" stroke-width="1.5"></path><path d="M937.82 543.11L1008.6 701.06" stroke="rgba(149, 156, 169, 1)" stroke-width="1.5"></path><path d="M937.82 543.11L838.02 364.9" stroke="rgba(149, 156, 169, 1)" stroke-width="1.5"></path><path d="M1008.6 701.06L1008.6 701.06" stroke="rgba(149, 156, 169, 1)" stroke-width="1.5"></path><path d="M1008.6 701.06L1147.97 670.89" stroke="rgba(149, 156, 169, 1)" stroke-width="1.5"></path><path d="M1008.6 701.06L847.11 507.76" stroke="rgba(149, 156, 169, 1)" stroke-width="1.5"></path><path d="M1088.31 -109.15L1088.31 -109.15" stroke="rgba(149, 156, 169, 1)" stroke-width="1.5"></path><path d="M1088.31 -109.15L1114.59 45.83" stroke="rgba(149, 156, 169, 1)" stroke-width="1.5"></path><path d="M1114.59 45.83L1114.59 45.83" stroke="rgba(149, 156, 169, 1)" stroke-width="1.5"></path><path d="M1114.59 45.83L1282.95 44.59" stroke="rgba(149, 156, 169, 1)" stroke-width="1.5"></path><path d="M1121.66 248.22L1121.66 248.22" stroke="rgba(149, 156, 169, 1)" stroke-width="1.5"></path><path d="M1121.66 248.22L1157.68 374.19" stroke="rgba(149, 156, 169, 1)" stroke-width="1.5"></path><path d="M1157.68 374.19L1157.68 374.19" stroke="rgba(149, 156, 169, 1)" stroke-width="1.5"></path><path d="M1157.68 374.19L1251.83 361.71" stroke="rgba(149, 156, 169, 1)" stroke-width="1.5"></path><path d="M1157.68 374.19L1267.15 249.02" stroke="rgba(149, 156, 169, 1)" stroke-width="1.5"></path><path d="M1157.68 374.19L1269.43 556.64" stroke="rgba(149, 156, 169, 1)" stroke-width="1.5"></path><path d="M1157.68 374.19L963.61 259.96" stroke="rgba(149, 156, 169, 1)" stroke-width="1.5"></path><path d="M1147.97 670.89L1147.97 670.89" stroke="rgba(149, 156, 169, 1)" stroke-width="1.5"></path><path d="M1147.97 670.89L1268.4 690.57" stroke="rgba(149, 156, 169, 1)" stroke-width="1.5"></path><path d="M1147.97 670.89L1269.43 556.64" stroke="rgba(149, 156, 169, 1)" stroke-width="1.5"></path><path d="M1147.97 670.89L937.82 543.11" stroke="rgba(149, 156, 169, 1)" stroke-width="1.5"></path><path d="M1147.97 670.89L1157.68 374.19" stroke="rgba(149, 156, 169, 1)" stroke-width="1.5"></path><path d="M1275.99 -63.37L1275.99 -63.37" stroke="rgba(149, 156, 169, 1)" stroke-width="1.5"></path><path d="M1275.99 -63.37L1282.95 44.59" stroke="rgba(149, 156, 169, 1)" stroke-width="1.5"></path><path d="M1275.99 -63.37L1405.16 -103.44" stroke="rgba(149, 156, 169, 1)" stroke-width="1.5"></path><path d="M1275.99 -63.37L1088.31 -109.15" stroke="rgba(149, 156, 169, 1)" stroke-width="1.5"></path><path d="M1275.99 -63.37L1114.59 45.83" stroke="rgba(149, 156, 169, 1)" stroke-width="1.5"></path><path d="M1275.99 -63.37L1453.83 85.21" stroke="rgba(149, 156, 169, 1)" stroke-width="1.5"></path><path d="M1282.95 44.59L1282.95 44.59" stroke="rgba(149, 156, 169, 1)" stroke-width="1.5"></path><path d="M1282.95 44.59L1453.83 85.21" stroke="rgba(149, 156, 169, 1)" stroke-width="1.5"></path><path d="M1267.15 249.02L1267.15 249.02" stroke="rgba(149, 156, 169, 1)" stroke-width="1.5"></path><path d="M1267.15 249.02L1251.83 361.71" stroke="rgba(149, 156, 169, 1)" stroke-width="1.5"></path><path d="M1267.15 249.02L1121.66 248.22" stroke="rgba(149, 156, 169, 1)" stroke-width="1.5"></path><path d="M1267.15 249.02L1436.15 190.96" stroke="rgba(149, 156, 169, 1)" stroke-width="1.5"></path><path d="M1267.15 249.02L1408.27 385.59" stroke="rgba(149, 156, 169, 1)" stroke-width="1.5"></path><path d="M1267.15 249.02L1282.95 44.59" stroke="rgba(149, 156, 169, 1)" stroke-width="1.5"></path><path d="M1251.83 361.71L1251.83 361.71" stroke="rgba(149, 156, 169, 1)" stroke-width="1.5"></path><path d="M1251.83 361.71L1408.27 385.59" stroke="rgba(149, 156, 169, 1)" stroke-width="1.5"></path><path d="M1251.83 361.71L1121.66 248.22" stroke="rgba(149, 156, 169, 1)" stroke-width="1.5"></path><path d="M1269.43 556.64L1269.43 556.64" stroke="rgba(149, 156, 169, 1)" stroke-width="1.5"></path><path d="M1269.43 556.64L1268.4 690.57" stroke="rgba(149, 156, 169, 1)" stroke-width="1.5"></path><path d="M1269.43 556.64L1251.83 361.71" stroke="rgba(149, 156, 169, 1)" stroke-width="1.5"></path><path d="M1269.43 556.64L1447.12 644.25" stroke="rgba(149, 156, 169, 1)" stroke-width="1.5"></path><path d="M1268.4 690.57L1268.4 690.57" stroke="rgba(149, 156, 169, 1)" stroke-width="1.5"></path><path d="M1268.4 690.57L1447.12 644.25" stroke="rgba(149, 156, 169, 1)" stroke-width="1.5"></path><path d="M1268.4 690.57L1008.6 701.06" stroke="rgba(149, 156, 169, 1)" stroke-width="1.5"></path><path d="M1268.4 690.57L1251.83 361.71" stroke="rgba(149, 156, 169, 1)" stroke-width="1.5"></path><path d="M1268.4 690.57L1598.4 683.74" stroke="rgba(149, 156, 169, 1)" stroke-width="1.5"></path><path d="M1405.16 -103.44L1405.16 -103.44" stroke="rgba(149, 156, 169, 1)" stroke-width="1.5"></path><path d="M1405.16 -103.44L1282.95 44.59" stroke="rgba(149, 156, 169, 1)" stroke-width="1.5"></path><path d="M1405.16 -103.44L1453.83 85.21" stroke="rgba(149, 156, 169, 1)" stroke-width="1.5"></path><path d="M1405.16 -103.44L1580.39 77.45" stroke="rgba(149, 156, 169, 1)" stroke-width="1.5"></path><path d="M1405.16 -103.44L1436.15 190.96" stroke="rgba(149, 156, 169, 1)" stroke-width="1.5"></path><path d="M1453.83 85.21L1453.83 85.21" stroke="rgba(149, 156, 169, 1)" stroke-width="1.5"></path><path d="M1453.83 85.21L1436.15 190.96" stroke="rgba(149, 156, 169, 1)" stroke-width="1.5"></path><path d="M1453.83 85.21L1580.39 77.45" stroke="rgba(149, 156, 169, 1)" stroke-width="1.5"></path><path d="M1453.83 85.21L1563.88 213.35" stroke="rgba(149, 156, 169, 1)" stroke-width="1.5"></path><path d="M1436.15 190.96L1436.15 190.96" stroke="rgba(149, 156, 169, 1)" stroke-width="1.5"></path><path d="M1436.15 190.96L1563.88 213.35" stroke="rgba(149, 156, 169, 1)" stroke-width="1.5"></path><path d="M1408.27 385.59L1408.27 385.59" stroke="rgba(149, 156, 169, 1)" stroke-width="1.5"></path><path d="M1408.27 385.59L1582.03 392.77" stroke="rgba(149, 156, 169, 1)" stroke-width="1.5"></path><path d="M1408.27 385.59L1436.15 190.96" stroke="rgba(149, 156, 169, 1)" stroke-width="1.5"></path><path d="M1447.12 644.25L1447.12 644.25" stroke="rgba(149, 156, 169, 1)" stroke-width="1.5"></path><path d="M1447.12 644.25L1598.4 683.74" stroke="rgba(149, 156, 169, 1)" stroke-width="1.5"></path><path d="M1447.12 644.25L1561.2 537.23" stroke="rgba(149, 156, 169, 1)" stroke-width="1.5"></path><path d="M1447.12 644.25L1408.27 385.59" stroke="rgba(149, 156, 169, 1)" stroke-width="1.5"></path><path d="M1580.39 77.45L1580.39 77.45" stroke="rgba(149, 156, 169, 1)" stroke-width="1.5"></path><path d="M1580.39 77.45L1563.88 213.35" stroke="rgba(149, 156, 169, 1)" stroke-width="1.5"></path><path d="M1580.39 77.45L1436.15 190.96" stroke="rgba(149, 156, 169, 1)" stroke-width="1.5"></path><path d="M1580.39 77.45L1282.95 44.59" stroke="rgba(149, 156, 169, 1)" stroke-width="1.5"></path><path d="M1580.39 77.45L1582.03 392.77" stroke="rgba(149, 156, 169, 1)" stroke-width="1.5"></path><path d="M1563.88 213.35L1563.88 213.35" stroke="rgba(149, 156, 169, 1)" stroke-width="1.5"></path><path d="M1582.03 392.77L1582.03 392.77" stroke="rgba(149, 156, 169, 1)" stroke-width="1.5"></path><path d="M1582.03 392.77L1561.2 537.23" stroke="rgba(149, 156, 169, 1)" stroke-width="1.5"></path><path d="M1582.03 392.77L1563.88 213.35" stroke="rgba(149, 156, 169, 1)" stroke-width="1.5"></path><path d="M1582.03 392.77L1436.15 190.96" stroke="rgba(149, 156, 169, 1)" stroke-width="1.5"></path><path d="M1582.03 392.77L1447.12 644.25" stroke="rgba(149, 156, 169, 1)" stroke-width="1.5"></path><path d="M1582.03 392.77L1598.4 683.74" stroke="rgba(149, 156, 169, 1)" stroke-width="1.5"></path><path d="M1561.2 537.23L1561.2 537.23" stroke="rgba(149, 156, 169, 1)" stroke-width="1.5"></path><path d="M1561.2 537.23L1598.4 683.74" stroke="rgba(149, 156, 169, 1)" stroke-width="1.5"></path><path d="M1561.2 537.23L1408.27 385.59" stroke="rgba(149, 156, 169, 1)" stroke-width="1.5"></path><path d="M1561.2 537.23L1269.43 556.64" stroke="rgba(149, 156, 169, 1)" stroke-width="1.5"></path><path d="M1561.2 537.23L1563.88 213.35" stroke="rgba(149, 156, 169, 1)" stroke-width="1.5"></path><path d="M1598.4 683.74L1598.4 683.74" stroke="rgba(149, 156, 169, 1)" stroke-width="1.5"></path><circle r="5" cx="-68.68" cy="353.11" fill="rgba(149, 156, 169, 1)"></circle><circle r="5" cx="-110.13" cy="538.39" fill="rgba(149, 156, 169, 1)"></circle><circle r="5" cx="-86.09" cy="669.55" fill="rgba(149, 156, 169, 1)"></circle><circle r="5" cx="104.47" cy="382.14" fill="rgba(149, 156, 169, 1)"></circle><circle r="5" cx="51.5" cy="518.46" fill="rgba(149, 156, 169, 1)"></circle><circle r="5" cx="70.73" cy="674.77" fill="rgba(149, 156, 169, 1)"></circle><circle r="5" cx="209.01" cy="387.51" fill="rgba(149, 156, 169, 1)"></circle><circle r="5" cx="212.31" cy="494.98" fill="rgba(149, 156, 169, 1)"></circle><circle r="5" cx="252.94" cy="710.62" fill="rgba(149, 156, 169, 1)"></circle><circle r="5" cx="412.27" cy="388.95" fill="rgba(149, 156, 169, 1)"></circle><circle r="5" cx="341.04" cy="519.12" fill="rgba(149, 156, 169, 1)"></circle><circle r="5" cx="405.08" cy="664.38" fill="rgba(149, 156, 169, 1)"></circle><circle r="5" cx="527.9" cy="396.44" fill="rgba(149, 156, 169, 1)"></circle><circle r="5" cx="530.82" cy="503.18" fill="rgba(149, 156, 169, 1)"></circle><circle r="5" cx="489.51" cy="662.83" fill="rgba(149, 156, 169, 1)"></circle><circle r="5" cx="676.91" cy="229.3" fill="rgba(149, 156, 169, 1)"></circle><circle r="5" cx="667.48" cy="357.14" fill="rgba(149, 156, 169, 1)"></circle><circle r="5" cx="657.47" cy="516.31" fill="rgba(149, 156, 169, 1)"></circle><circle r="5" cx="653.15" cy="669.32" fill="rgba(149, 156, 169, 1)"></circle><circle r="5" cx="835.67" cy="90.86" fill="rgba(149, 156, 169, 1)"></circle><circle r="5" cx="861.19" cy="191.44" fill="rgba(149, 156, 169, 1)"></circle><circle r="5" cx="838.02" cy="364.9" fill="rgba(149, 156, 169, 1)"></circle><circle r="5" cx="847.11" cy="507.76" fill="rgba(149, 156, 169, 1)"></circle><circle r="5" cx="824.42" cy="712.37" fill="rgba(149, 156, 169, 1)"></circle><circle r="5" cx="997.75" cy="-75.84" fill="rgba(149, 156, 169, 1)"></circle><circle r="5" cx="997.04" cy="60" fill="rgba(149, 156, 169, 1)"></circle><circle r="5" cx="963.61" cy="259.96" fill="rgba(149, 156, 169, 1)"></circle><circle r="5" cx="979.95" cy="385.53" fill="rgba(149, 156, 169, 1)"></circle><circle r="5" cx="937.82" cy="543.11" fill="rgba(149, 156, 169, 1)"></circle><circle r="5" cx="1008.6" cy="701.06" fill="rgba(149, 156, 169, 1)"></circle><circle r="5" cx="1088.31" cy="-109.15" fill="rgba(149, 156, 169, 1)"></circle><circle r="5" cx="1114.59" cy="45.83" fill="rgba(149, 156, 169, 1)"></circle><circle r="5" cx="1121.66" cy="248.22" fill="rgba(149, 156, 169, 1)"></circle><circle r="5" cx="1157.68" cy="374.19" fill="rgba(149, 156, 169, 1)"></circle><circle r="5" cx="1147.97" cy="670.89" fill="rgba(149, 156, 169, 1)"></circle><circle r="5" cx="1275.99" cy="-63.37" fill="rgba(149, 156, 169, 1)"></circle><circle r="5" cx="1282.95" cy="44.59" fill="rgba(149, 156, 169, 1)"></circle><circle r="5" cx="1267.15" cy="249.02" fill="rgba(149, 156, 169, 1)"></circle><circle r="5" cx="1251.83" cy="361.71" fill="rgba(149, 156, 169, 1)"></circle><circle r="5" cx="1269.43" cy="556.64" fill="rgba(149, 156, 169, 1)"></circle><circle r="5" cx="1268.4" cy="690.57" fill="rgba(149, 156, 169, 1)"></circle><circle r="5" cx="1405.16" cy="-103.44" fill="rgba(149, 156, 169, 1)"></circle><circle r="5" cx="1453.83" cy="85.21" fill="rgba(149, 156, 169, 1)"></circle><circle r="5" cx="1436.15" cy="190.96" fill="rgba(149, 156, 169, 1)"></circle><circle r="5" cx="1408.27" cy="385.59" fill="rgba(149, 156, 169, 1)"></circle><circle r="5" cx="1447.12" cy="644.25" fill="rgba(149, 156, 169, 1)"></circle><circle r="5" cx="1580.39" cy="77.45" fill="rgba(149, 156, 169, 1)"></circle><circle r="5" cx="1563.88" cy="213.35" fill="rgba(149, 156, 169, 1)"></circle><circle r="5" cx="1582.03" cy="392.77" fill="rgba(149, 156, 169, 1)"></circle><circle r="5" cx="1561.2" cy="537.23" fill="rgba(149, 156, 169, 1)"></circle><circle r="5" cx="1598.4" cy="683.74" fill="rgba(149, 156, 169, 1)"></circle><path d="M75.46 554.81L75.46 554.81" stroke="hsl(228.5, 84.6%, 96.9%)" stroke-width="1.5"></path><path d="M75.46 554.81L59.86 666.69" stroke="hsl(228.5, 84.6%, 96.9%)" stroke-width="1.5"></path><path d="M75.46 554.81L240.19 562.46" stroke="hsl(228.5, 84.6%, 96.9%)" stroke-width="1.5"></path><path d="M75.46 554.81L-73.04 645.21" stroke="hsl(228.5, 84.6%, 96.9%)" stroke-width="1.5"></path><path d="M75.46 554.81L-94.87 517.51" stroke="hsl(228.5, 84.6%, 96.9%)" stroke-width="1.5"></path><path d="M556.57 665.22L556.57 665.22" stroke="hsl(228.5, 84.6%, 96.9%)" stroke-width="1.5"></path><path d="M556.57 665.22L673.41 647.95" stroke="hsl(228.5, 84.6%, 96.9%)" stroke-width="1.5"></path><path d="M556.57 665.22L540.41 525.3" stroke="hsl(228.5, 84.6%, 96.9%)" stroke-width="1.5"></path><path d="M556.57 665.22L381.97 663.55" stroke="hsl(228.5, 84.6%, 96.9%)" stroke-width="1.5"></path><path d="M556.57 665.22L696.11 516.25" stroke="hsl(228.5, 84.6%, 96.9%)" stroke-width="1.5"></path><path d="M831.45 496.84L831.45 496.84" stroke="hsl(228.5, 84.6%, 96.9%)" stroke-width="1.5"></path><path d="M831.45 496.84L813.42 393.36" stroke="hsl(228.5, 84.6%, 96.9%)" stroke-width="1.5"></path><path d="M999.12 671.72L999.12 671.72" stroke="hsl(228.5, 84.6%, 96.9%)" stroke-width="1.5"></path><path d="M999.12 671.72L1108.01 705.34" stroke="hsl(228.5, 84.6%, 96.9%)" stroke-width="1.5"></path><path d="M999.12 671.72L1006.8 543.72" stroke="hsl(228.5, 84.6%, 96.9%)" stroke-width="1.5"></path><path d="M999.12 671.72L791.84 688.6" stroke="hsl(228.5, 84.6%, 96.9%)" stroke-width="1.5"></path><path d="M999.12 671.72L1147.92 505.23" stroke="hsl(228.5, 84.6%, 96.9%)" stroke-width="1.5"></path><path d="M999.12 671.72L831.45 496.84" stroke="hsl(228.5, 84.6%, 96.9%)" stroke-width="1.5"></path><path d="M999.12 671.72L959.56 381.68" stroke="hsl(228.5, 84.6%, 96.9%)" stroke-width="1.5"></path><path d="M-94.87 517.51L-94.87 517.51" stroke="hsl(228.5, 84.6%, 96.9%)" stroke-width="1.5"></path><path d="M-94.87 517.51L-73.04 645.21" stroke="hsl(228.5, 84.6%, 96.9%)" stroke-width="1.5"></path><path d="M-94.87 517.51L59.86 666.69" stroke="hsl(228.5, 84.6%, 96.9%)" stroke-width="1.5"></path><path d="M-73.04 645.21L-73.04 645.21" stroke="hsl(228.5, 84.6%, 96.9%)" stroke-width="1.5"></path><path d="M-73.04 645.21L59.86 666.69" stroke="hsl(228.5, 84.6%, 96.9%)" stroke-width="1.5"></path><path d="M59.86 666.69L59.86 666.69" stroke="hsl(228.5, 84.6%, 96.9%)" stroke-width="1.5"></path><path d="M59.86 666.69L206.81 672.67" stroke="hsl(228.5, 84.6%, 96.9%)" stroke-width="1.5"></path><path d="M59.86 666.69L240.19 562.46" stroke="hsl(228.5, 84.6%, 96.9%)" stroke-width="1.5"></path><path d="M240.19 562.46L240.19 562.46" stroke="hsl(228.5, 84.6%, 96.9%)" stroke-width="1.5"></path><path d="M240.19 562.46L206.81 672.67" stroke="hsl(228.5, 84.6%, 96.9%)" stroke-width="1.5"></path><path d="M206.81 672.67L206.81 672.67" stroke="hsl(228.5, 84.6%, 96.9%)" stroke-width="1.5"></path><path d="M206.81 672.67L381.97 663.55" stroke="hsl(228.5, 84.6%, 96.9%)" stroke-width="1.5"></path><path d="M206.81 672.67L75.46 554.81" stroke="hsl(228.5, 84.6%, 96.9%)" stroke-width="1.5"></path><path d="M206.81 672.67L402.7 512.37" stroke="hsl(228.5, 84.6%, 96.9%)" stroke-width="1.5"></path><path d="M402.7 512.37L402.7 512.37" stroke="hsl(228.5, 84.6%, 96.9%)" stroke-width="1.5"></path><path d="M402.7 512.37L540.41 525.3" stroke="hsl(228.5, 84.6%, 96.9%)" stroke-width="1.5"></path><path d="M402.7 512.37L381.97 663.55" stroke="hsl(228.5, 84.6%, 96.9%)" stroke-width="1.5"></path><path d="M402.7 512.37L240.19 562.46" stroke="hsl(228.5, 84.6%, 96.9%)" stroke-width="1.5"></path><path d="M402.7 512.37L556.57 665.22" stroke="hsl(228.5, 84.6%, 96.9%)" stroke-width="1.5"></path><path d="M381.97 663.55L381.97 663.55" stroke="hsl(228.5, 84.6%, 96.9%)" stroke-width="1.5"></path><path d="M381.97 663.55L240.19 562.46" stroke="hsl(228.5, 84.6%, 96.9%)" stroke-width="1.5"></path><path d="M540.41 525.3L540.41 525.3" stroke="hsl(228.5, 84.6%, 96.9%)" stroke-width="1.5"></path><path d="M540.41 525.3L696.11 516.25" stroke="hsl(228.5, 84.6%, 96.9%)" stroke-width="1.5"></path><path d="M540.41 525.3L673.41 647.95" stroke="hsl(228.5, 84.6%, 96.9%)" stroke-width="1.5"></path><path d="M696.11 516.25L696.11 516.25" stroke="hsl(228.5, 84.6%, 96.9%)" stroke-width="1.5"></path><path d="M696.11 516.25L673.41 647.95" stroke="hsl(228.5, 84.6%, 96.9%)" stroke-width="1.5"></path><path d="M696.11 516.25L831.45 496.84" stroke="hsl(228.5, 84.6%, 96.9%)" stroke-width="1.5"></path><path d="M696.11 516.25L813.42 393.36" stroke="hsl(228.5, 84.6%, 96.9%)" stroke-width="1.5"></path><path d="M696.11 516.25L791.84 688.6" stroke="hsl(228.5, 84.6%, 96.9%)" stroke-width="1.5"></path><path d="M673.41 647.95L673.41 647.95" stroke="hsl(228.5, 84.6%, 96.9%)" stroke-width="1.5"></path><path d="M673.41 647.95L791.84 688.6" stroke="hsl(228.5, 84.6%, 96.9%)" stroke-width="1.5"></path><path d="M813.42 393.36L813.42 393.36" stroke="hsl(228.5, 84.6%, 96.9%)" stroke-width="1.5"></path><path d="M813.42 393.36L959.56 381.68" stroke="hsl(228.5, 84.6%, 96.9%)" stroke-width="1.5"></path><path d="M791.84 688.6L791.84 688.6" stroke="hsl(228.5, 84.6%, 96.9%)" stroke-width="1.5"></path><path d="M791.84 688.6L831.45 496.84" stroke="hsl(228.5, 84.6%, 96.9%)" stroke-width="1.5"></path><path d="M959.56 381.68L959.56 381.68" stroke="hsl(228.5, 84.6%, 96.9%)" stroke-width="1.5"></path><path d="M959.56 381.68L1109.09 377.93" stroke="hsl(228.5, 84.6%, 96.9%)" stroke-width="1.5"></path><path d="M959.56 381.68L1006.8 543.72" stroke="hsl(228.5, 84.6%, 96.9%)" stroke-width="1.5"></path><path d="M959.56 381.68L831.45 496.84" stroke="hsl(228.5, 84.6%, 96.9%)" stroke-width="1.5"></path><path d="M959.56 381.68L1147.92 505.23" stroke="hsl(228.5, 84.6%, 96.9%)" stroke-width="1.5"></path><path d="M1006.8 543.72L1006.8 543.72" stroke="hsl(228.5, 84.6%, 96.9%)" stroke-width="1.5"></path><path d="M1006.8 543.72L1147.92 505.23" stroke="hsl(228.5, 84.6%, 96.9%)" stroke-width="1.5"></path><path d="M1158.4 99.37L1158.4 99.37" stroke="hsl(228.5, 84.6%, 96.9%)" stroke-width="1.5"></path><path d="M1158.4 99.37L1119.33 212.66" stroke="hsl(228.5, 84.6%, 96.9%)" stroke-width="1.5"></path><path d="M1158.4 99.37L1239.39 -63.47" stroke="hsl(228.5, 84.6%, 96.9%)" stroke-width="1.5"></path><path d="M1158.4 99.37L1284.26 239.86" stroke="hsl(228.5, 84.6%, 96.9%)" stroke-width="1.5"></path><path d="M1158.4 99.37L1258.1 353.78" stroke="hsl(228.5, 84.6%, 96.9%)" stroke-width="1.5"></path><path d="M1158.4 99.37L1437.28 112.25" stroke="hsl(228.5, 84.6%, 96.9%)" stroke-width="1.5"></path><path d="M1119.33 212.66L1119.33 212.66" stroke="hsl(228.5, 84.6%, 96.9%)" stroke-width="1.5"></path><path d="M1119.33 212.66L1109.09 377.93" stroke="hsl(228.5, 84.6%, 96.9%)" stroke-width="1.5"></path><path d="M1119.33 212.66L1284.26 239.86" stroke="hsl(228.5, 84.6%, 96.9%)" stroke-width="1.5"></path><path d="M1119.33 212.66L1258.1 353.78" stroke="hsl(228.5, 84.6%, 96.9%)" stroke-width="1.5"></path><path d="M1119.33 212.66L959.56 381.68" stroke="hsl(228.5, 84.6%, 96.9%)" stroke-width="1.5"></path><path d="M1109.09 377.93L1109.09 377.93" stroke="hsl(228.5, 84.6%, 96.9%)" stroke-width="1.5"></path><path d="M1109.09 377.93L1147.92 505.23" stroke="hsl(228.5, 84.6%, 96.9%)" stroke-width="1.5"></path><path d="M1109.09 377.93L1258.1 353.78" stroke="hsl(228.5, 84.6%, 96.9%)" stroke-width="1.5"></path><path d="M1109.09 377.93L1006.8 543.72" stroke="hsl(228.5, 84.6%, 96.9%)" stroke-width="1.5"></path><path d="M1147.92 505.23L1147.92 505.23" stroke="hsl(228.5, 84.6%, 96.9%)" stroke-width="1.5"></path><path d="M1147.92 505.23L1288.83 497.03" stroke="hsl(228.5, 84.6%, 96.9%)" stroke-width="1.5"></path><path d="M1147.92 505.23L1258.1 353.78" stroke="hsl(228.5, 84.6%, 96.9%)" stroke-width="1.5"></path><path d="M1108.01 705.34L1108.01 705.34" stroke="hsl(228.5, 84.6%, 96.9%)" stroke-width="1.5"></path><path d="M1239.39 -63.47L1239.39 -63.47" stroke="hsl(228.5, 84.6%, 96.9%)" stroke-width="1.5"></path><path d="M1239.39 -63.47L1438.67 -38.54" stroke="hsl(228.5, 84.6%, 96.9%)" stroke-width="1.5"></path><path d="M1239.39 -63.47L1437.28 112.25" stroke="hsl(228.5, 84.6%, 96.9%)" stroke-width="1.5"></path><path d="M1239.39 -63.47L1119.33 212.66" stroke="hsl(228.5, 84.6%, 96.9%)" stroke-width="1.5"></path><path d="M1239.39 -63.47L1284.26 239.86" stroke="hsl(228.5, 84.6%, 96.9%)" stroke-width="1.5"></path><path d="M1284.26 239.86L1284.26 239.86" stroke="hsl(228.5, 84.6%, 96.9%)" stroke-width="1.5"></path><path d="M1284.26 239.86L1258.1 353.78" stroke="hsl(228.5, 84.6%, 96.9%)" stroke-width="1.5"></path><path d="M1284.26 239.86L1431.1 212.31" stroke="hsl(228.5, 84.6%, 96.9%)" stroke-width="1.5"></path><path d="M1284.26 239.86L1434.43 360.3" stroke="hsl(228.5, 84.6%, 96.9%)" stroke-width="1.5"></path><path d="M1258.1 353.78L1258.1 353.78" stroke="hsl(228.5, 84.6%, 96.9%)" stroke-width="1.5"></path><path d="M1258.1 353.78L1288.83 497.03" stroke="hsl(228.5, 84.6%, 96.9%)" stroke-width="1.5"></path><path d="M1288.83 497.03L1288.83 497.03" stroke="hsl(228.5, 84.6%, 96.9%)" stroke-width="1.5"></path><path d="M1288.83 497.03L1402.01 534.39" stroke="hsl(228.5, 84.6%, 96.9%)" stroke-width="1.5"></path><path d="M1288.83 497.03L1292.27 642.72" stroke="hsl(228.5, 84.6%, 96.9%)" stroke-width="1.5"></path><path d="M1288.83 497.03L1434.43 360.3" stroke="hsl(228.5, 84.6%, 96.9%)" stroke-width="1.5"></path><path d="M1288.83 497.03L1109.09 377.93" stroke="hsl(228.5, 84.6%, 96.9%)" stroke-width="1.5"></path><path d="M1292.27 642.72L1292.27 642.72" stroke="hsl(228.5, 84.6%, 96.9%)" stroke-width="1.5"></path><path d="M1292.27 642.72L1411.29 683.12" stroke="hsl(228.5, 84.6%, 96.9%)" stroke-width="1.5"></path><path d="M1292.27 642.72L1402.01 534.39" stroke="hsl(228.5, 84.6%, 96.9%)" stroke-width="1.5"></path><path d="M1438.67 -38.54L1438.67 -38.54" stroke="hsl(228.5, 84.6%, 96.9%)" stroke-width="1.5"></path><path d="M1438.67 -38.54L1577.45 -45.04" stroke="hsl(228.5, 84.6%, 96.9%)" stroke-width="1.5"></path><path d="M1438.67 -38.54L1437.28 112.25" stroke="hsl(228.5, 84.6%, 96.9%)" stroke-width="1.5"></path><path d="M1438.67 -38.54L1431.1 212.31" stroke="hsl(228.5, 84.6%, 96.9%)" stroke-width="1.5"></path><path d="M1437.28 112.25L1437.28 112.25" stroke="hsl(228.5, 84.6%, 96.9%)" stroke-width="1.5"></path><path d="M1437.28 112.25L1431.1 212.31" stroke="hsl(228.5, 84.6%, 96.9%)" stroke-width="1.5"></path><path d="M1437.28 112.25L1550.47 259.88" stroke="hsl(228.5, 84.6%, 96.9%)" stroke-width="1.5"></path><path d="M1437.28 112.25L1284.26 239.86" stroke="hsl(228.5, 84.6%, 96.9%)" stroke-width="1.5"></path><path d="M1431.1 212.31L1431.1 212.31" stroke="hsl(228.5, 84.6%, 96.9%)" stroke-width="1.5"></path><path d="M1431.1 212.31L1550.47 259.88" stroke="hsl(228.5, 84.6%, 96.9%)" stroke-width="1.5"></path><path d="M1434.43 360.3L1434.43 360.3" stroke="hsl(228.5, 84.6%, 96.9%)" stroke-width="1.5"></path><path d="M1434.43 360.3L1546.64 396.47" stroke="hsl(228.5, 84.6%, 96.9%)" stroke-width="1.5"></path><path d="M1434.43 360.3L1431.1 212.31" stroke="hsl(228.5, 84.6%, 96.9%)" stroke-width="1.5"></path><path d="M1434.43 360.3L1550.47 259.88" stroke="hsl(228.5, 84.6%, 96.9%)" stroke-width="1.5"></path><path d="M1434.43 360.3L1258.1 353.78" stroke="hsl(228.5, 84.6%, 96.9%)" stroke-width="1.5"></path><path d="M1434.43 360.3L1402.01 534.39" stroke="hsl(228.5, 84.6%, 96.9%)" stroke-width="1.5"></path><path d="M1402.01 534.39L1402.01 534.39" stroke="hsl(228.5, 84.6%, 96.9%)" stroke-width="1.5"></path><path d="M1402.01 534.39L1411.29 683.12" stroke="hsl(228.5, 84.6%, 96.9%)" stroke-width="1.5"></path><path d="M1411.29 683.12L1411.29 683.12" stroke="hsl(228.5, 84.6%, 96.9%)" stroke-width="1.5"></path><path d="M1411.29 683.12L1541.3 651.99" stroke="hsl(228.5, 84.6%, 96.9%)" stroke-width="1.5"></path><path d="M1411.29 683.12L1288.83 497.03" stroke="hsl(228.5, 84.6%, 96.9%)" stroke-width="1.5"></path><path d="M1577.45 -45.04L1577.45 -45.04" stroke="hsl(228.5, 84.6%, 96.9%)" stroke-width="1.5"></path><path d="M1577.45 -45.04L1437.28 112.25" stroke="hsl(228.5, 84.6%, 96.9%)" stroke-width="1.5"></path><path d="M1577.45 -45.04L1431.1 212.31" stroke="hsl(228.5, 84.6%, 96.9%)" stroke-width="1.5"></path><path d="M1577.45 -45.04L1550.47 259.88" stroke="hsl(228.5, 84.6%, 96.9%)" stroke-width="1.5"></path><path d="M1577.45 -45.04L1239.39 -63.47" stroke="hsl(228.5, 84.6%, 96.9%)" stroke-width="1.5"></path><path d="M1577.45 -45.04L1284.26 239.86" stroke="hsl(228.5, 84.6%, 96.9%)" stroke-width="1.5"></path><path d="M1550.47 259.88L1550.47 259.88" stroke="hsl(228.5, 84.6%, 96.9%)" stroke-width="1.5"></path><path d="M1550.47 259.88L1546.64 396.47" stroke="hsl(228.5, 84.6%, 96.9%)" stroke-width="1.5"></path><path d="M1546.64 396.47L1546.64 396.47" stroke="hsl(228.5, 84.6%, 96.9%)" stroke-width="1.5"></path><path d="M1546.64 396.47L1570.37 519" stroke="hsl(228.5, 84.6%, 96.9%)" stroke-width="1.5"></path><path d="M1570.37 519L1570.37 519" stroke="hsl(228.5, 84.6%, 96.9%)" stroke-width="1.5"></path><path d="M1570.37 519L1541.3 651.99" stroke="hsl(228.5, 84.6%, 96.9%)" stroke-width="1.5"></path><path d="M1570.37 519L1402.01 534.39" stroke="hsl(228.5, 84.6%, 96.9%)" stroke-width="1.5"></path><path d="M1570.37 519L1434.43 360.3" stroke="hsl(228.5, 84.6%, 96.9%)" stroke-width="1.5"></path><path d="M1541.3 651.99L1541.3 651.99" stroke="hsl(228.5, 84.6%, 96.9%)" stroke-width="1.5"></path><path d="M1541.3 651.99L1402.01 534.39" stroke="hsl(228.5, 84.6%, 96.9%)" stroke-width="1.5"></path><path d="M1541.3 651.99L1292.27 642.72" stroke="hsl(228.5, 84.6%, 96.9%)" stroke-width="1.5"></path><circle r="25" cx="75.46" cy="554.81" fill="url(&quot;#SvgjsRadialGradient1019&quot;)"></circle><circle r="25" cx="556.57" cy="665.22" fill="url(&quot;#SvgjsRadialGradient1019&quot;)"></circle><circle r="25" cx="831.45" cy="496.84" fill="url(&quot;#SvgjsRadialGradient1019&quot;)"></circle><circle r="25" cx="999.12" cy="671.72" fill="url(&quot;#SvgjsRadialGradient1019&quot;)"></circle><circle r="5" cx="-94.87" cy="517.51" fill="#c3cefa"></circle><circle r="5" cx="-73.04" cy="645.21" fill="#c3cefa"></circle><circle r="5" cx="59.86" cy="666.69" fill="#c3cefa"></circle><circle r="5" cx="240.19" cy="562.46" fill="#c3cefa"></circle><circle r="5" cx="206.81" cy="672.67" fill="#c3cefa"></circle><circle r="5" cx="402.7" cy="512.37" fill="#c3cefa"></circle><circle r="5" cx="381.97" cy="663.55" fill="#c3cefa"></circle><circle r="5" cx="540.41" cy="525.3" fill="#c3cefa"></circle><circle r="5" cx="696.11" cy="516.25" fill="#c3cefa"></circle><circle r="5" cx="673.41" cy="647.95" fill="#c3cefa"></circle><circle r="5" cx="813.42" cy="393.36" fill="#c3cefa"></circle><circle r="5" cx="791.84" cy="688.6" fill="#c3cefa"></circle><circle r="5" cx="959.56" cy="381.68" fill="#c3cefa"></circle><circle r="5" cx="1006.8" cy="543.72" fill="#c3cefa"></circle><circle r="5" cx="1158.4" cy="99.37" fill="#c3cefa"></circle><circle r="5" cx="1119.33" cy="212.66" fill="#c3cefa"></circle><circle r="5" cx="1109.09" cy="377.93" fill="#c3cefa"></circle><circle r="5" cx="1147.92" cy="505.23" fill="#c3cefa"></circle><circle r="5" cx="1108.01" cy="705.34" fill="#c3cefa"></circle><circle r="5" cx="1239.39" cy="-63.47" fill="#c3cefa"></circle><circle r="5" cx="1284.26" cy="239.86" fill="#c3cefa"></circle><circle r="5" cx="1258.1" cy="353.78" fill="#c3cefa"></circle><circle r="5" cx="1288.83" cy="497.03" fill="#c3cefa"></circle><circle r="5" cx="1292.27" cy="642.72" fill="#c3cefa"></circle><circle r="5" cx="1438.67" cy="-38.54" fill="#c3cefa"></circle><circle r="5" cx="1437.28" cy="112.25" fill="#c3cefa"></circle><circle r="5" cx="1431.1" cy="212.31" fill="#c3cefa"></circle><circle r="5" cx="1434.43" cy="360.3" fill="#c3cefa"></circle><circle r="5" cx="1402.01" cy="534.39" fill="#c3cefa"></circle><circle r="5" cx="1411.29" cy="683.12" fill="#c3cefa"></circle><circle r="5" cx="1577.45" cy="-45.04" fill="#c3cefa"></circle><circle r="5" cx="1550.47" cy="259.88" fill="#c3cefa"></circle><circle r="5" cx="1546.64" cy="396.47" fill="#c3cefa"></circle><circle r="5" cx="1570.37" cy="519" fill="#c3cefa"></circle><circle r="5" cx="1541.3" cy="651.99" fill="#c3cefa"></circle></g><defs><mask id="SvgjsMask1018"><rect width="1440" height="560" fill="#ffffff"></rect></mask><radialGradient id="SvgjsRadialGradient1019"><stop stop-color="#ffffff" offset="0.1"></stop><stop stop-color="rgba(135, 156, 245, 1)" offset="0.2"></stop><stop stop-color="rgba(135, 156, 245, 0)" offset="1"></stop></radialGradient></defs></svg>