<svg xmlns="http://www.w3.org/2000/svg" version="1.1" xmlns:xlink="http://www.w3.org/1999/xlink" xmlns:svgjs="http://svgjs.dev/svgjs" width="1440" height="560" preserveAspectRatio="none" viewBox="0 0 1440 560"><g mask="url(&quot;#SvgjsMask1000&quot;)" fill="none"><rect width="1440" height="560" x="0" y="0" fill="#0e2a47"></rect><path d="M-40.54 359.78L-40.54 359.78" stroke="#132e65" stroke-width="1.5"></path><path d="M-40.54 359.78L50.74 529.23" stroke="#132e65" stroke-width="1.5"></path><path d="M-40.54 359.78L-107.96 540.4" stroke="#132e65" stroke-width="1.5"></path><path d="M-40.54 359.78L204.64 408.04" stroke="#132e65" stroke-width="1.5"></path><path d="M-40.54 359.78L-74.14 662.12" stroke="#132e65" stroke-width="1.5"></path><path d="M-107.96 540.4L-107.96 540.4" stroke="#132e65" stroke-width="1.5"></path><path d="M-107.96 540.4L-74.14 662.12" stroke="#132e65" stroke-width="1.5"></path><path d="M-107.96 540.4L50.74 529.23" stroke="#132e65" stroke-width="1.5"></path><path d="M-107.96 540.4L75.43 653.81" stroke="#132e65" stroke-width="1.5"></path><path d="M-107.96 540.4L224.36 524.24" stroke="#132e65" stroke-width="1.5"></path><path d="M-107.96 540.4L204.64 408.04" stroke="#132e65" stroke-width="1.5"></path><path d="M-74.14 662.12L-74.14 662.12" stroke="#132e65" stroke-width="1.5"></path><path d="M-74.14 662.12L75.43 653.81" stroke="#132e65" stroke-width="1.5"></path><path d="M-74.14 662.12L50.74 529.23" stroke="#132e65" stroke-width="1.5"></path><path d="M-74.14 662.12L209.75 665.71" stroke="#132e65" stroke-width="1.5"></path><path d="M-74.14 662.12L224.36 524.24" stroke="#132e65" stroke-width="1.5"></path><path d="M50.74 529.23L50.74 529.23" stroke="#132e65" stroke-width="1.5"></path><path d="M50.74 529.23L75.43 653.81" stroke="#132e65" stroke-width="1.5"></path><path d="M50.74 529.23L224.36 524.24" stroke="#132e65" stroke-width="1.5"></path><path d="M75.43 653.81L75.43 653.81" stroke="#132e65" stroke-width="1.5"></path><path d="M75.43 653.81L209.75 665.71" stroke="#132e65" stroke-width="1.5"></path><path d="M75.43 653.81L224.36 524.24" stroke="#132e65" stroke-width="1.5"></path><path d="M204.64 408.04L204.64 408.04" stroke="#132e65" stroke-width="1.5"></path><path d="M204.64 408.04L224.36 524.24" stroke="#132e65" stroke-width="1.5"></path><path d="M204.64 408.04L375.67 386.57" stroke="#132e65" stroke-width="1.5"></path><path d="M204.64 408.04L50.74 529.23" stroke="#132e65" stroke-width="1.5"></path><path d="M224.36 524.24L224.36 524.24" stroke="#132e65" stroke-width="1.5"></path><path d="M224.36 524.24L209.75 665.71" stroke="#132e65" stroke-width="1.5"></path><path d="M224.36 524.24L395.53 498.22" stroke="#132e65" stroke-width="1.5"></path><path d="M209.75 665.71L209.75 665.71" stroke="#132e65" stroke-width="1.5"></path><path d="M209.75 665.71L396.24 677.4" stroke="#132e65" stroke-width="1.5"></path><path d="M209.75 665.71L50.74 529.23" stroke="#132e65" stroke-width="1.5"></path><path d="M209.75 665.71L395.53 498.22" stroke="#132e65" stroke-width="1.5"></path><path d="M209.75 665.71L204.64 408.04" stroke="#132e65" stroke-width="1.5"></path><path d="M375.67 386.57L375.67 386.57" stroke="#132e65" stroke-width="1.5"></path><path d="M375.67 386.57L395.53 498.22" stroke="#132e65" stroke-width="1.5"></path><path d="M375.67 386.57L490.43 523.04" stroke="#132e65" stroke-width="1.5"></path><path d="M375.67 386.57L561.56 342.07" stroke="#132e65" stroke-width="1.5"></path><path d="M375.67 386.57L224.36 524.24" stroke="#132e65" stroke-width="1.5"></path><path d="M395.53 498.22L395.53 498.22" stroke="#132e65" stroke-width="1.5"></path><path d="M395.53 498.22L490.43 523.04" stroke="#132e65" stroke-width="1.5"></path><path d="M395.53 498.22L396.24 677.4" stroke="#132e65" stroke-width="1.5"></path><path d="M396.24 677.4L396.24 677.4" stroke="#132e65" stroke-width="1.5"></path><path d="M396.24 677.4L533.53 679.56" stroke="#132e65" stroke-width="1.5"></path><path d="M396.24 677.4L490.43 523.04" stroke="#132e65" stroke-width="1.5"></path><path d="M561.56 342.07L561.56 342.07" stroke="#132e65" stroke-width="1.5"></path><path d="M561.56 342.07L711.95 351.03" stroke="#132e65" stroke-width="1.5"></path><path d="M561.56 342.07L490.43 523.04" stroke="#132e65" stroke-width="1.5"></path><path d="M561.56 342.07L690.88 525.44" stroke="#132e65" stroke-width="1.5"></path><path d="M490.43 523.04L490.43 523.04" stroke="#132e65" stroke-width="1.5"></path><path d="M490.43 523.04L533.53 679.56" stroke="#132e65" stroke-width="1.5"></path><path d="M533.53 679.56L533.53 679.56" stroke="#132e65" stroke-width="1.5"></path><path d="M533.53 679.56L674.02 676.06" stroke="#132e65" stroke-width="1.5"></path><path d="M533.53 679.56L690.88 525.44" stroke="#132e65" stroke-width="1.5"></path><path d="M533.53 679.56L395.53 498.22" stroke="#132e65" stroke-width="1.5"></path><path d="M533.53 679.56L855.8 671.39" stroke="#132e65" stroke-width="1.5"></path><path d="M711.95 351.03L711.95 351.03" stroke="#132e65" stroke-width="1.5"></path><path d="M711.95 351.03L835.92 230.21" stroke="#132e65" stroke-width="1.5"></path><path d="M711.95 351.03L690.88 525.44" stroke="#132e65" stroke-width="1.5"></path><path d="M711.95 351.03L844.54 506.44" stroke="#132e65" stroke-width="1.5"></path><path d="M690.88 525.44L690.88 525.44" stroke="#132e65" stroke-width="1.5"></path><path d="M690.88 525.44L674.02 676.06" stroke="#132e65" stroke-width="1.5"></path><path d="M690.88 525.44L844.54 506.44" stroke="#132e65" stroke-width="1.5"></path><path d="M674.02 676.06L674.02 676.06" stroke="#132e65" stroke-width="1.5"></path><path d="M835.92 230.21L835.92 230.21" stroke="#132e65" stroke-width="1.5"></path><path d="M835.92 230.21L944.73 193.56" stroke="#132e65" stroke-width="1.5"></path><path d="M835.92 230.21L980.6 355.92" stroke="#132e65" stroke-width="1.5"></path><path d="M844.54 506.44L844.54 506.44" stroke="#132e65" stroke-width="1.5"></path><path d="M844.54 506.44L984.62 492.51" stroke="#132e65" stroke-width="1.5"></path><path d="M855.8 671.39L855.8 671.39" stroke="#132e65" stroke-width="1.5"></path><path d="M855.8 671.39L952 707.39" stroke="#132e65" stroke-width="1.5"></path><path d="M855.8 671.39L844.54 506.44" stroke="#132e65" stroke-width="1.5"></path><path d="M855.8 671.39L674.02 676.06" stroke="#132e65" stroke-width="1.5"></path><path d="M855.8 671.39L690.88 525.44" stroke="#132e65" stroke-width="1.5"></path><path d="M855.8 671.39L984.62 492.51" stroke="#132e65" stroke-width="1.5"></path><path d="M855.8 671.39L1134.71 673.32" stroke="#132e65" stroke-width="1.5"></path><path d="M1008.02 -83.77L1008.02 -83.77" stroke="#132e65" stroke-width="1.5"></path><path d="M1008.02 -83.77L1121.46 -68.91" stroke="#132e65" stroke-width="1.5"></path><path d="M1008.02 -83.77L1005.37 43.45" stroke="#132e65" stroke-width="1.5"></path><path d="M1008.02 -83.77L1124.55 87.65" stroke="#132e65" stroke-width="1.5"></path><path d="M1008.02 -83.77L1269.92 -98.92" stroke="#132e65" stroke-width="1.5"></path><path d="M1008.02 -83.77L944.73 193.56" stroke="#132e65" stroke-width="1.5"></path><path d="M1008.02 -83.77L1269.1 50.68" stroke="#132e65" stroke-width="1.5"></path><path d="M1005.37 43.45L1005.37 43.45" stroke="#132e65" stroke-width="1.5"></path><path d="M1005.37 43.45L1124.55 87.65" stroke="#132e65" stroke-width="1.5"></path><path d="M1005.37 43.45L1121.46 -68.91" stroke="#132e65" stroke-width="1.5"></path><path d="M1005.37 43.45L944.73 193.56" stroke="#132e65" stroke-width="1.5"></path><path d="M1005.37 43.45L1106.34 198.45" stroke="#132e65" stroke-width="1.5"></path><path d="M944.73 193.56L944.73 193.56" stroke="#132e65" stroke-width="1.5"></path><path d="M944.73 193.56L1106.34 198.45" stroke="#132e65" stroke-width="1.5"></path><path d="M944.73 193.56L980.6 355.92" stroke="#132e65" stroke-width="1.5"></path><path d="M944.73 193.56L1124.55 87.65" stroke="#132e65" stroke-width="1.5"></path><path d="M944.73 193.56L1110.03 407.92" stroke="#132e65" stroke-width="1.5"></path><path d="M980.6 355.92L980.6 355.92" stroke="#132e65" stroke-width="1.5"></path><path d="M980.6 355.92L984.62 492.51" stroke="#132e65" stroke-width="1.5"></path><path d="M980.6 355.92L1110.03 407.92" stroke="#132e65" stroke-width="1.5"></path><path d="M984.62 492.51L984.62 492.51" stroke="#132e65" stroke-width="1.5"></path><path d="M984.62 492.51L1110.03 407.92" stroke="#132e65" stroke-width="1.5"></path><path d="M984.62 492.51L1131.23 555.36" stroke="#132e65" stroke-width="1.5"></path><path d="M952 707.39L952 707.39" stroke="#132e65" stroke-width="1.5"></path><path d="M952 707.39L1134.71 673.32" stroke="#132e65" stroke-width="1.5"></path><path d="M952 707.39L984.62 492.51" stroke="#132e65" stroke-width="1.5"></path><path d="M952 707.39L844.54 506.44" stroke="#132e65" stroke-width="1.5"></path><path d="M952 707.39L1131.23 555.36" stroke="#132e65" stroke-width="1.5"></path><path d="M1121.46 -68.91L1121.46 -68.91" stroke="#132e65" stroke-width="1.5"></path><path d="M1121.46 -68.91L1269.92 -98.92" stroke="#132e65" stroke-width="1.5"></path><path d="M1121.46 -68.91L1124.55 87.65" stroke="#132e65" stroke-width="1.5"></path><path d="M1124.55 87.65L1124.55 87.65" stroke="#132e65" stroke-width="1.5"></path><path d="M1124.55 87.65L1106.34 198.45" stroke="#132e65" stroke-width="1.5"></path><path d="M1124.55 87.65L1269.1 50.68" stroke="#132e65" stroke-width="1.5"></path><path d="M1106.34 198.45L1106.34 198.45" stroke="#132e65" stroke-width="1.5"></path><path d="M1106.34 198.45L980.6 355.92" stroke="#132e65" stroke-width="1.5"></path><path d="M1110.03 407.92L1110.03 407.92" stroke="#132e65" stroke-width="1.5"></path><path d="M1110.03 407.92L1131.23 555.36" stroke="#132e65" stroke-width="1.5"></path><path d="M1131.23 555.36L1131.23 555.36" stroke="#132e65" stroke-width="1.5"></path><path d="M1131.23 555.36L1134.71 673.32" stroke="#132e65" stroke-width="1.5"></path><path d="M1131.23 555.36L1264.22 493.35" stroke="#132e65" stroke-width="1.5"></path><path d="M1131.23 555.36L980.6 355.92" stroke="#132e65" stroke-width="1.5"></path><path d="M1134.71 673.32L1134.71 673.32" stroke="#132e65" stroke-width="1.5"></path><path d="M1134.71 673.32L1264.22 493.35" stroke="#132e65" stroke-width="1.5"></path><path d="M1134.71 673.32L984.62 492.51" stroke="#132e65" stroke-width="1.5"></path><path d="M1134.71 673.32L1110.03 407.92" stroke="#132e65" stroke-width="1.5"></path><path d="M1269.92 -98.92L1269.92 -98.92" stroke="#132e65" stroke-width="1.5"></path><path d="M1269.92 -98.92L1269.1 50.68" stroke="#132e65" stroke-width="1.5"></path><path d="M1269.92 -98.92L1425.31 -63.9" stroke="#132e65" stroke-width="1.5"></path><path d="M1269.92 -98.92L1457.07 42.52" stroke="#132e65" stroke-width="1.5"></path><path d="M1269.1 50.68L1269.1 50.68" stroke="#132e65" stroke-width="1.5"></path><path d="M1304.05 239.67L1304.05 239.67" stroke="#132e65" stroke-width="1.5"></path><path d="M1304.05 239.67L1439.36 193.88" stroke="#132e65" stroke-width="1.5"></path><path d="M1304.05 239.67L1404.34 402.51" stroke="#132e65" stroke-width="1.5"></path><path d="M1304.05 239.67L1269.1 50.68" stroke="#132e65" stroke-width="1.5"></path><path d="M1304.05 239.67L1106.34 198.45" stroke="#132e65" stroke-width="1.5"></path><path d="M1304.05 239.67L1124.55 87.65" stroke="#132e65" stroke-width="1.5"></path><path d="M1264.22 493.35L1264.22 493.35" stroke="#132e65" stroke-width="1.5"></path><path d="M1264.22 493.35L1404.34 402.51" stroke="#132e65" stroke-width="1.5"></path><path d="M1425.31 -63.9L1425.31 -63.9" stroke="#132e65" stroke-width="1.5"></path><path d="M1425.31 -63.9L1457.07 42.52" stroke="#132e65" stroke-width="1.5"></path><path d="M1425.31 -63.9L1581.25 -51.27" stroke="#132e65" stroke-width="1.5"></path><path d="M1425.31 -63.9L1269.1 50.68" stroke="#132e65" stroke-width="1.5"></path><path d="M1425.31 -63.9L1598.19 60.35" stroke="#132e65" stroke-width="1.5"></path><path d="M1425.31 -63.9L1439.36 193.88" stroke="#132e65" stroke-width="1.5"></path><path d="M1457.07 42.52L1457.07 42.52" stroke="#132e65" stroke-width="1.5"></path><path d="M1457.07 42.52L1598.19 60.35" stroke="#132e65" stroke-width="1.5"></path><path d="M1457.07 42.52L1439.36 193.88" stroke="#132e65" stroke-width="1.5"></path><path d="M1457.07 42.52L1581.25 -51.27" stroke="#132e65" stroke-width="1.5"></path><path d="M1439.36 193.88L1439.36 193.88" stroke="#132e65" stroke-width="1.5"></path><path d="M1439.36 193.88L1577.64 217.45" stroke="#132e65" stroke-width="1.5"></path><path d="M1404.34 402.51L1404.34 402.51" stroke="#132e65" stroke-width="1.5"></path><path d="M1404.34 402.51L1432.35 508.47" stroke="#132e65" stroke-width="1.5"></path><path d="M1404.34 402.51L1541.29 367.09" stroke="#132e65" stroke-width="1.5"></path><path d="M1404.34 402.51L1439.36 193.88" stroke="#132e65" stroke-width="1.5"></path><path d="M1432.35 508.47L1432.35 508.47" stroke="#132e65" stroke-width="1.5"></path><path d="M1432.35 508.47L1584.6 536.4" stroke="#132e65" stroke-width="1.5"></path><path d="M1432.35 508.47L1264.22 493.35" stroke="#132e65" stroke-width="1.5"></path><path d="M1432.35 508.47L1448.1 680.31" stroke="#132e65" stroke-width="1.5"></path><path d="M1432.35 508.47L1541.29 367.09" stroke="#132e65" stroke-width="1.5"></path><path d="M1432.35 508.47L1559.7 667.28" stroke="#132e65" stroke-width="1.5"></path><path d="M1448.1 680.31L1448.1 680.31" stroke="#132e65" stroke-width="1.5"></path><path d="M1448.1 680.31L1559.7 667.28" stroke="#132e65" stroke-width="1.5"></path><path d="M1448.1 680.31L1584.6 536.4" stroke="#132e65" stroke-width="1.5"></path><path d="M1581.25 -51.27L1581.25 -51.27" stroke="#132e65" stroke-width="1.5"></path><path d="M1581.25 -51.27L1598.19 60.35" stroke="#132e65" stroke-width="1.5"></path><path d="M1581.25 -51.27L1577.64 217.45" stroke="#132e65" stroke-width="1.5"></path><path d="M1581.25 -51.27L1439.36 193.88" stroke="#132e65" stroke-width="1.5"></path><path d="M1598.19 60.35L1598.19 60.35" stroke="#132e65" stroke-width="1.5"></path><path d="M1598.19 60.35L1577.64 217.45" stroke="#132e65" stroke-width="1.5"></path><path d="M1598.19 60.35L1439.36 193.88" stroke="#132e65" stroke-width="1.5"></path><path d="M1598.19 60.35L1541.29 367.09" stroke="#132e65" stroke-width="1.5"></path><path d="M1577.64 217.45L1577.64 217.45" stroke="#132e65" stroke-width="1.5"></path><path d="M1577.64 217.45L1541.29 367.09" stroke="#132e65" stroke-width="1.5"></path><path d="M1541.29 367.09L1541.29 367.09" stroke="#132e65" stroke-width="1.5"></path><path d="M1584.6 536.4L1584.6 536.4" stroke="#132e65" stroke-width="1.5"></path><path d="M1584.6 536.4L1559.7 667.28" stroke="#132e65" stroke-width="1.5"></path><path d="M1584.6 536.4L1541.29 367.09" stroke="#132e65" stroke-width="1.5"></path><path d="M1559.7 667.28L1559.7 667.28" stroke="#132e65" stroke-width="1.5"></path><path d="M1559.7 667.28L1541.29 367.09" stroke="#132e65" stroke-width="1.5"></path><path d="M1559.7 667.28L1404.34 402.51" stroke="#132e65" stroke-width="1.5"></path><circle r="5" cx="-40.54" cy="359.78" fill="#132e65"></circle><circle r="5" cx="-107.96" cy="540.4" fill="#132e65"></circle><circle r="5" cx="-74.14" cy="662.12" fill="#132e65"></circle><circle r="5" cx="50.74" cy="529.23" fill="#132e65"></circle><circle r="5" cx="75.43" cy="653.81" fill="#132e65"></circle><circle r="5" cx="204.64" cy="408.04" fill="#132e65"></circle><circle r="5" cx="224.36" cy="524.24" fill="#132e65"></circle><circle r="5" cx="209.75" cy="665.71" fill="#132e65"></circle><circle r="5" cx="375.67" cy="386.57" fill="#132e65"></circle><circle r="5" cx="395.53" cy="498.22" fill="#132e65"></circle><circle r="5" cx="396.24" cy="677.4" fill="#132e65"></circle><circle r="5" cx="561.56" cy="342.07" fill="#132e65"></circle><circle r="5" cx="490.43" cy="523.04" fill="#132e65"></circle><circle r="5" cx="533.53" cy="679.56" fill="#132e65"></circle><circle r="5" cx="711.95" cy="351.03" fill="#132e65"></circle><circle r="5" cx="690.88" cy="525.44" fill="#132e65"></circle><circle r="5" cx="674.02" cy="676.06" fill="#132e65"></circle><circle r="5" cx="835.92" cy="230.21" fill="#132e65"></circle><circle r="5" cx="844.54" cy="506.44" fill="#132e65"></circle><circle r="5" cx="855.8" cy="671.39" fill="#132e65"></circle><circle r="5" cx="1008.02" cy="-83.77" fill="#132e65"></circle><circle r="5" cx="1005.37" cy="43.45" fill="#132e65"></circle><circle r="5" cx="944.73" cy="193.56" fill="#132e65"></circle><circle r="5" cx="980.6" cy="355.92" fill="#132e65"></circle><circle r="5" cx="984.62" cy="492.51" fill="#132e65"></circle><circle r="5" cx="952" cy="707.39" fill="#132e65"></circle><circle r="5" cx="1121.46" cy="-68.91" fill="#132e65"></circle><circle r="5" cx="1124.55" cy="87.65" fill="#132e65"></circle><circle r="5" cx="1106.34" cy="198.45" fill="#132e65"></circle><circle r="5" cx="1110.03" cy="407.92" fill="#132e65"></circle><circle r="5" cx="1131.23" cy="555.36" fill="#132e65"></circle><circle r="5" cx="1134.71" cy="673.32" fill="#132e65"></circle><circle r="5" cx="1269.92" cy="-98.92" fill="#132e65"></circle><circle r="5" cx="1269.1" cy="50.68" fill="#132e65"></circle><circle r="5" cx="1304.05" cy="239.67" fill="#132e65"></circle><circle r="5" cx="1264.22" cy="493.35" fill="#132e65"></circle><circle r="5" cx="1425.31" cy="-63.9" fill="#132e65"></circle><circle r="5" cx="1457.07" cy="42.52" fill="#132e65"></circle><circle r="5" cx="1439.36" cy="193.88" fill="#132e65"></circle><circle r="5" cx="1404.34" cy="402.51" fill="#132e65"></circle><circle r="5" cx="1432.35" cy="508.47" fill="#132e65"></circle><circle r="5" cx="1448.1" cy="680.31" fill="#132e65"></circle><circle r="5" cx="1581.25" cy="-51.27" fill="#132e65"></circle><circle r="5" cx="1598.19" cy="60.35" fill="#132e65"></circle><circle r="5" cx="1577.64" cy="217.45" fill="#132e65"></circle><circle r="5" cx="1541.29" cy="367.09" fill="#132e65"></circle><circle r="5" cx="1584.6" cy="536.4" fill="#132e65"></circle><circle r="5" cx="1559.7" cy="667.28" fill="#132e65"></circle><path d="M1278.21 99.32L1278.21 99.32" stroke="hsl(228.5, 77.2%, 51.5%)" stroke-width="1.5"></path><path d="M1278.21 99.32L1153.11 64.58" stroke="hsl(228.5, 77.2%, 51.5%)" stroke-width="1.5"></path><path d="M1278.21 99.32L1255.34 253.89" stroke="hsl(228.5, 77.2%, 51.5%)" stroke-width="1.5"></path><path d="M1278.21 99.32L1408.66 200.75" stroke="hsl(228.5, 77.2%, 51.5%)" stroke-width="1.5"></path><path d="M1278.21 99.32L1134.52 188.02" stroke="hsl(228.5, 77.2%, 51.5%)" stroke-width="1.5"></path><path d="M1265.71 339.4L1265.71 339.4" stroke="hsl(228.5, 77.2%, 51.5%)" stroke-width="1.5"></path><path d="M1265.71 339.4L1255.34 253.89" stroke="hsl(228.5, 77.2%, 51.5%)" stroke-width="1.5"></path><path d="M1265.71 339.4L1255.71 502.28" stroke="hsl(228.5, 77.2%, 51.5%)" stroke-width="1.5"></path><path d="M1265.71 339.4L1114.23 409.14" stroke="hsl(228.5, 77.2%, 51.5%)" stroke-width="1.5"></path><path d="M-88.07 489.05L-88.07 489.05" stroke="hsl(228.5, 77.2%, 51.5%)" stroke-width="1.5"></path><path d="M-88.07 489.05L-48.85 675.52" stroke="hsl(228.5, 77.2%, 51.5%)" stroke-width="1.5"></path><path d="M-88.07 489.05L108.97 536.17" stroke="hsl(228.5, 77.2%, 51.5%)" stroke-width="1.5"></path><path d="M-88.07 489.05L97.19 677.19" stroke="hsl(228.5, 77.2%, 51.5%)" stroke-width="1.5"></path><path d="M-48.85 675.52L-48.85 675.52" stroke="hsl(228.5, 77.2%, 51.5%)" stroke-width="1.5"></path><path d="M-48.85 675.52L97.19 677.19" stroke="hsl(228.5, 77.2%, 51.5%)" stroke-width="1.5"></path><path d="M-48.85 675.52L108.97 536.17" stroke="hsl(228.5, 77.2%, 51.5%)" stroke-width="1.5"></path><path d="M108.97 536.17L108.97 536.17" stroke="hsl(228.5, 77.2%, 51.5%)" stroke-width="1.5"></path><path d="M108.97 536.17L213.99 546.05" stroke="hsl(228.5, 77.2%, 51.5%)" stroke-width="1.5"></path><path d="M108.97 536.17L97.19 677.19" stroke="hsl(228.5, 77.2%, 51.5%)" stroke-width="1.5"></path><path d="M108.97 536.17L254.47 659.55" stroke="hsl(228.5, 77.2%, 51.5%)" stroke-width="1.5"></path><path d="M108.97 536.17L381.44 562.34" stroke="hsl(228.5, 77.2%, 51.5%)" stroke-width="1.5"></path><path d="M97.19 677.19L97.19 677.19" stroke="hsl(228.5, 77.2%, 51.5%)" stroke-width="1.5"></path><path d="M97.19 677.19L254.47 659.55" stroke="hsl(228.5, 77.2%, 51.5%)" stroke-width="1.5"></path><path d="M97.19 677.19L213.99 546.05" stroke="hsl(228.5, 77.2%, 51.5%)" stroke-width="1.5"></path><path d="M213.99 546.05L213.99 546.05" stroke="hsl(228.5, 77.2%, 51.5%)" stroke-width="1.5"></path><path d="M213.99 546.05L254.47 659.55" stroke="hsl(228.5, 77.2%, 51.5%)" stroke-width="1.5"></path><path d="M254.47 659.55L254.47 659.55" stroke="hsl(228.5, 77.2%, 51.5%)" stroke-width="1.5"></path><path d="M254.47 659.55L372.8 652.08" stroke="hsl(228.5, 77.2%, 51.5%)" stroke-width="1.5"></path><path d="M381.44 562.34L381.44 562.34" stroke="hsl(228.5, 77.2%, 51.5%)" stroke-width="1.5"></path><path d="M381.44 562.34L372.8 652.08" stroke="hsl(228.5, 77.2%, 51.5%)" stroke-width="1.5"></path><path d="M381.44 562.34L511.38 506.82" stroke="hsl(228.5, 77.2%, 51.5%)" stroke-width="1.5"></path><path d="M372.8 652.08L372.8 652.08" stroke="hsl(228.5, 77.2%, 51.5%)" stroke-width="1.5"></path><path d="M372.8 652.08L545.46 672.13" stroke="hsl(228.5, 77.2%, 51.5%)" stroke-width="1.5"></path><path d="M372.8 652.08L213.99 546.05" stroke="hsl(228.5, 77.2%, 51.5%)" stroke-width="1.5"></path><path d="M372.8 652.08L511.38 506.82" stroke="hsl(228.5, 77.2%, 51.5%)" stroke-width="1.5"></path><path d="M511.38 506.82L511.38 506.82" stroke="hsl(228.5, 77.2%, 51.5%)" stroke-width="1.5"></path><path d="M511.38 506.82L647.52 533.48" stroke="hsl(228.5, 77.2%, 51.5%)" stroke-width="1.5"></path><path d="M511.38 506.82L545.46 672.13" stroke="hsl(228.5, 77.2%, 51.5%)" stroke-width="1.5"></path><path d="M511.38 506.82L650.67 396.3" stroke="hsl(228.5, 77.2%, 51.5%)" stroke-width="1.5"></path><path d="M545.46 672.13L545.46 672.13" stroke="hsl(228.5, 77.2%, 51.5%)" stroke-width="1.5"></path><path d="M545.46 672.13L692.81 653.1" stroke="hsl(228.5, 77.2%, 51.5%)" stroke-width="1.5"></path><path d="M545.46 672.13L647.52 533.48" stroke="hsl(228.5, 77.2%, 51.5%)" stroke-width="1.5"></path><path d="M545.46 672.13L381.44 562.34" stroke="hsl(228.5, 77.2%, 51.5%)" stroke-width="1.5"></path><path d="M545.46 672.13L807.41 707.16" stroke="hsl(228.5, 77.2%, 51.5%)" stroke-width="1.5"></path><path d="M650.67 396.3L650.67 396.3" stroke="hsl(228.5, 77.2%, 51.5%)" stroke-width="1.5"></path><path d="M650.67 396.3L647.52 533.48" stroke="hsl(228.5, 77.2%, 51.5%)" stroke-width="1.5"></path><path d="M650.67 396.3L840.4 355.88" stroke="hsl(228.5, 77.2%, 51.5%)" stroke-width="1.5"></path><path d="M647.52 533.48L647.52 533.48" stroke="hsl(228.5, 77.2%, 51.5%)" stroke-width="1.5"></path><path d="M647.52 533.48L692.81 653.1" stroke="hsl(228.5, 77.2%, 51.5%)" stroke-width="1.5"></path><path d="M647.52 533.48L835.16 494.87" stroke="hsl(228.5, 77.2%, 51.5%)" stroke-width="1.5"></path><path d="M647.52 533.48L807.41 707.16" stroke="hsl(228.5, 77.2%, 51.5%)" stroke-width="1.5"></path><path d="M692.81 653.1L692.81 653.1" stroke="hsl(228.5, 77.2%, 51.5%)" stroke-width="1.5"></path><path d="M692.81 653.1L807.41 707.16" stroke="hsl(228.5, 77.2%, 51.5%)" stroke-width="1.5"></path><path d="M692.81 653.1L835.16 494.87" stroke="hsl(228.5, 77.2%, 51.5%)" stroke-width="1.5"></path><path d="M692.81 653.1L511.38 506.82" stroke="hsl(228.5, 77.2%, 51.5%)" stroke-width="1.5"></path><path d="M840.4 355.88L840.4 355.88" stroke="hsl(228.5, 77.2%, 51.5%)" stroke-width="1.5"></path><path d="M840.4 355.88L946.76 412.45" stroke="hsl(228.5, 77.2%, 51.5%)" stroke-width="1.5"></path><path d="M840.4 355.88L835.16 494.87" stroke="hsl(228.5, 77.2%, 51.5%)" stroke-width="1.5"></path><path d="M840.4 355.88L993.31 519.3" stroke="hsl(228.5, 77.2%, 51.5%)" stroke-width="1.5"></path><path d="M840.4 355.88L647.52 533.48" stroke="hsl(228.5, 77.2%, 51.5%)" stroke-width="1.5"></path><path d="M840.4 355.88L1114.23 409.14" stroke="hsl(228.5, 77.2%, 51.5%)" stroke-width="1.5"></path><path d="M835.16 494.87L835.16 494.87" stroke="hsl(228.5, 77.2%, 51.5%)" stroke-width="1.5"></path><path d="M835.16 494.87L946.76 412.45" stroke="hsl(228.5, 77.2%, 51.5%)" stroke-width="1.5"></path><path d="M807.41 707.16L807.41 707.16" stroke="hsl(228.5, 77.2%, 51.5%)" stroke-width="1.5"></path><path d="M807.41 707.16L950.37 700.91" stroke="hsl(228.5, 77.2%, 51.5%)" stroke-width="1.5"></path><path d="M807.41 707.16L835.16 494.87" stroke="hsl(228.5, 77.2%, 51.5%)" stroke-width="1.5"></path><path d="M946.76 412.45L946.76 412.45" stroke="hsl(228.5, 77.2%, 51.5%)" stroke-width="1.5"></path><path d="M946.76 412.45L993.31 519.3" stroke="hsl(228.5, 77.2%, 51.5%)" stroke-width="1.5"></path><path d="M993.31 519.3L993.31 519.3" stroke="hsl(228.5, 77.2%, 51.5%)" stroke-width="1.5"></path><path d="M993.31 519.3L1093.61 497.45" stroke="hsl(228.5, 77.2%, 51.5%)" stroke-width="1.5"></path><path d="M993.31 519.3L835.16 494.87" stroke="hsl(228.5, 77.2%, 51.5%)" stroke-width="1.5"></path><path d="M993.31 519.3L1114.23 409.14" stroke="hsl(228.5, 77.2%, 51.5%)" stroke-width="1.5"></path><path d="M993.31 519.3L950.37 700.91" stroke="hsl(228.5, 77.2%, 51.5%)" stroke-width="1.5"></path><path d="M993.31 519.3L1146.36 647.13" stroke="hsl(228.5, 77.2%, 51.5%)" stroke-width="1.5"></path><path d="M950.37 700.91L950.37 700.91" stroke="hsl(228.5, 77.2%, 51.5%)" stroke-width="1.5"></path><path d="M1153.11 64.58L1153.11 64.58" stroke="hsl(228.5, 77.2%, 51.5%)" stroke-width="1.5"></path><path d="M1153.11 64.58L1134.52 188.02" stroke="hsl(228.5, 77.2%, 51.5%)" stroke-width="1.5"></path><path d="M1153.11 64.58L1255.34 253.89" stroke="hsl(228.5, 77.2%, 51.5%)" stroke-width="1.5"></path><path d="M1134.52 188.02L1134.52 188.02" stroke="hsl(228.5, 77.2%, 51.5%)" stroke-width="1.5"></path><path d="M1134.52 188.02L1255.34 253.89" stroke="hsl(228.5, 77.2%, 51.5%)" stroke-width="1.5"></path><path d="M1134.52 188.02L1265.71 339.4" stroke="hsl(228.5, 77.2%, 51.5%)" stroke-width="1.5"></path><path d="M1134.52 188.02L1114.23 409.14" stroke="hsl(228.5, 77.2%, 51.5%)" stroke-width="1.5"></path><path d="M1114.23 409.14L1114.23 409.14" stroke="hsl(228.5, 77.2%, 51.5%)" stroke-width="1.5"></path><path d="M1114.23 409.14L1093.61 497.45" stroke="hsl(228.5, 77.2%, 51.5%)" stroke-width="1.5"></path><path d="M1093.61 497.45L1093.61 497.45" stroke="hsl(228.5, 77.2%, 51.5%)" stroke-width="1.5"></path><path d="M1093.61 497.45L1146.36 647.13" stroke="hsl(228.5, 77.2%, 51.5%)" stroke-width="1.5"></path><path d="M1146.36 647.13L1146.36 647.13" stroke="hsl(228.5, 77.2%, 51.5%)" stroke-width="1.5"></path><path d="M1146.36 647.13L1255.69 657.28" stroke="hsl(228.5, 77.2%, 51.5%)" stroke-width="1.5"></path><path d="M1146.36 647.13L1255.71 502.28" stroke="hsl(228.5, 77.2%, 51.5%)" stroke-width="1.5"></path><path d="M1146.36 647.13L950.37 700.91" stroke="hsl(228.5, 77.2%, 51.5%)" stroke-width="1.5"></path><path d="M1307.43 -102.36L1307.43 -102.36" stroke="hsl(228.5, 77.2%, 51.5%)" stroke-width="1.5"></path><path d="M1307.43 -102.36L1454.54 -98.23" stroke="hsl(228.5, 77.2%, 51.5%)" stroke-width="1.5"></path><path d="M1307.43 -102.36L1278.21 99.32" stroke="hsl(228.5, 77.2%, 51.5%)" stroke-width="1.5"></path><path d="M1307.43 -102.36L1153.11 64.58" stroke="hsl(228.5, 77.2%, 51.5%)" stroke-width="1.5"></path><path d="M1255.34 253.89L1255.34 253.89" stroke="hsl(228.5, 77.2%, 51.5%)" stroke-width="1.5"></path><path d="M1255.71 502.28L1255.71 502.28" stroke="hsl(228.5, 77.2%, 51.5%)" stroke-width="1.5"></path><path d="M1255.71 502.28L1255.69 657.28" stroke="hsl(228.5, 77.2%, 51.5%)" stroke-width="1.5"></path><path d="M1255.71 502.28L1093.61 497.45" stroke="hsl(228.5, 77.2%, 51.5%)" stroke-width="1.5"></path><path d="M1255.69 657.28L1255.69 657.28" stroke="hsl(228.5, 77.2%, 51.5%)" stroke-width="1.5"></path><path d="M1255.69 657.28L1093.61 497.45" stroke="hsl(228.5, 77.2%, 51.5%)" stroke-width="1.5"></path><path d="M1454.54 -98.23L1454.54 -98.23" stroke="hsl(228.5, 77.2%, 51.5%)" stroke-width="1.5"></path><path d="M1454.54 -98.23L1612.39 -99.83" stroke="hsl(228.5, 77.2%, 51.5%)" stroke-width="1.5"></path><path d="M1454.54 -98.23L1553.91 102.8" stroke="hsl(228.5, 77.2%, 51.5%)" stroke-width="1.5"></path><path d="M1454.54 -98.23L1278.21 99.32" stroke="hsl(228.5, 77.2%, 51.5%)" stroke-width="1.5"></path><path d="M1408.66 200.75L1408.66 200.75" stroke="hsl(228.5, 77.2%, 51.5%)" stroke-width="1.5"></path><path d="M1408.66 200.75L1561.01 252.8" stroke="hsl(228.5, 77.2%, 51.5%)" stroke-width="1.5"></path><path d="M1408.66 200.75L1255.34 253.89" stroke="hsl(228.5, 77.2%, 51.5%)" stroke-width="1.5"></path><path d="M1408.66 200.75L1448.65 359.69" stroke="hsl(228.5, 77.2%, 51.5%)" stroke-width="1.5"></path><path d="M1408.66 200.75L1553.91 102.8" stroke="hsl(228.5, 77.2%, 51.5%)" stroke-width="1.5"></path><path d="M1408.66 200.75L1265.71 339.4" stroke="hsl(228.5, 77.2%, 51.5%)" stroke-width="1.5"></path><path d="M1448.65 359.69L1448.65 359.69" stroke="hsl(228.5, 77.2%, 51.5%)" stroke-width="1.5"></path><path d="M1448.65 359.69L1561.01 252.8" stroke="hsl(228.5, 77.2%, 51.5%)" stroke-width="1.5"></path><path d="M1448.65 359.69L1439.12 520.51" stroke="hsl(228.5, 77.2%, 51.5%)" stroke-width="1.5"></path><path d="M1448.65 359.69L1561.43 498.51" stroke="hsl(228.5, 77.2%, 51.5%)" stroke-width="1.5"></path><path d="M1448.65 359.69L1265.71 339.4" stroke="hsl(228.5, 77.2%, 51.5%)" stroke-width="1.5"></path><path d="M1448.65 359.69L1255.34 253.89" stroke="hsl(228.5, 77.2%, 51.5%)" stroke-width="1.5"></path><path d="M1439.12 520.51L1439.12 520.51" stroke="hsl(228.5, 77.2%, 51.5%)" stroke-width="1.5"></path><path d="M1439.12 520.51L1561.43 498.51" stroke="hsl(228.5, 77.2%, 51.5%)" stroke-width="1.5"></path><path d="M1439.12 520.51L1542.42 662.4" stroke="hsl(228.5, 77.2%, 51.5%)" stroke-width="1.5"></path><path d="M1439.12 520.51L1255.71 502.28" stroke="hsl(228.5, 77.2%, 51.5%)" stroke-width="1.5"></path><path d="M1612.39 -99.83L1612.39 -99.83" stroke="hsl(228.5, 77.2%, 51.5%)" stroke-width="1.5"></path><path d="M1612.39 -99.83L1553.91 102.8" stroke="hsl(228.5, 77.2%, 51.5%)" stroke-width="1.5"></path><path d="M1553.91 102.8L1553.91 102.8" stroke="hsl(228.5, 77.2%, 51.5%)" stroke-width="1.5"></path><path d="M1553.91 102.8L1561.01 252.8" stroke="hsl(228.5, 77.2%, 51.5%)" stroke-width="1.5"></path><path d="M1561.01 252.8L1561.01 252.8" stroke="hsl(228.5, 77.2%, 51.5%)" stroke-width="1.5"></path><path d="M1561.01 252.8L1561.43 498.51" stroke="hsl(228.5, 77.2%, 51.5%)" stroke-width="1.5"></path><path d="M1561.01 252.8L1439.12 520.51" stroke="hsl(228.5, 77.2%, 51.5%)" stroke-width="1.5"></path><path d="M1561.43 498.51L1561.43 498.51" stroke="hsl(228.5, 77.2%, 51.5%)" stroke-width="1.5"></path><path d="M1561.43 498.51L1542.42 662.4" stroke="hsl(228.5, 77.2%, 51.5%)" stroke-width="1.5"></path><path d="M1542.42 662.4L1542.42 662.4" stroke="hsl(228.5, 77.2%, 51.5%)" stroke-width="1.5"></path><path d="M1542.42 662.4L1255.69 657.28" stroke="hsl(228.5, 77.2%, 51.5%)" stroke-width="1.5"></path><path d="M1542.42 662.4L1448.65 359.69" stroke="hsl(228.5, 77.2%, 51.5%)" stroke-width="1.5"></path><path d="M1542.42 662.4L1255.71 502.28" stroke="hsl(228.5, 77.2%, 51.5%)" stroke-width="1.5"></path><circle r="25" cx="1278.21" cy="99.32" fill="url(&quot;#SvgjsRadialGradient1001&quot;)"></circle><circle r="25" cx="1265.71" cy="339.4" fill="url(&quot;#SvgjsRadialGradient1001&quot;)"></circle><circle r="5" cx="-88.07" cy="489.05" fill="#8b9ad9"></circle><circle r="5" cx="-48.85" cy="675.52" fill="#8b9ad9"></circle><circle r="5" cx="108.97" cy="536.17" fill="#8b9ad9"></circle><circle r="5" cx="97.19" cy="677.19" fill="#8b9ad9"></circle><circle r="5" cx="213.99" cy="546.05" fill="#8b9ad9"></circle><circle r="5" cx="254.47" cy="659.55" fill="#8b9ad9"></circle><circle r="5" cx="381.44" cy="562.34" fill="#8b9ad9"></circle><circle r="5" cx="372.8" cy="652.08" fill="#8b9ad9"></circle><circle r="5" cx="511.38" cy="506.82" fill="#8b9ad9"></circle><circle r="5" cx="545.46" cy="672.13" fill="#8b9ad9"></circle><circle r="5" cx="650.67" cy="396.3" fill="#8b9ad9"></circle><circle r="5" cx="647.52" cy="533.48" fill="#8b9ad9"></circle><circle r="5" cx="692.81" cy="653.1" fill="#8b9ad9"></circle><circle r="5" cx="840.4" cy="355.88" fill="#8b9ad9"></circle><circle r="5" cx="835.16" cy="494.87" fill="#8b9ad9"></circle><circle r="5" cx="807.41" cy="707.16" fill="#8b9ad9"></circle><circle r="5" cx="946.76" cy="412.45" fill="#8b9ad9"></circle><circle r="5" cx="993.31" cy="519.3" fill="#8b9ad9"></circle><circle r="5" cx="950.37" cy="700.91" fill="#8b9ad9"></circle><circle r="5" cx="1153.11" cy="64.58" fill="#8b9ad9"></circle><circle r="5" cx="1134.52" cy="188.02" fill="#8b9ad9"></circle><circle r="5" cx="1114.23" cy="409.14" fill="#8b9ad9"></circle><circle r="5" cx="1093.61" cy="497.45" fill="#8b9ad9"></circle><circle r="5" cx="1146.36" cy="647.13" fill="#8b9ad9"></circle><circle r="5" cx="1307.43" cy="-102.36" fill="#8b9ad9"></circle><circle r="5" cx="1255.34" cy="253.89" fill="#8b9ad9"></circle><circle r="5" cx="1255.71" cy="502.28" fill="#8b9ad9"></circle><circle r="5" cx="1255.69" cy="657.28" fill="#8b9ad9"></circle><circle r="5" cx="1454.54" cy="-98.23" fill="#8b9ad9"></circle><circle r="5" cx="1408.66" cy="200.75" fill="#8b9ad9"></circle><circle r="5" cx="1448.65" cy="359.69" fill="#8b9ad9"></circle><circle r="5" cx="1439.12" cy="520.51" fill="#8b9ad9"></circle><circle r="5" cx="1612.39" cy="-99.83" fill="#8b9ad9"></circle><circle r="5" cx="1553.91" cy="102.8" fill="#8b9ad9"></circle><circle r="5" cx="1561.01" cy="252.8" fill="#8b9ad9"></circle><circle r="5" cx="1561.43" cy="498.51" fill="#8b9ad9"></circle><circle r="5" cx="1542.42" cy="662.4" fill="#8b9ad9"></circle></g><defs><mask id="SvgjsMask1000"><rect width="1440" height="560" fill="#ffffff"></rect></mask><radialGradient id="SvgjsRadialGradient1001"><stop stop-color="#ffffff" offset="0.1"></stop><stop stop-color="#1735b3" offset="0.2"></stop><stop stop-color="rgba(23, 53, 179, 0)" offset="1"></stop></radialGradient></defs></svg>