<svg xmlns="http://www.w3.org/2000/svg" version="1.1" xmlns:xlink="http://www.w3.org/1999/xlink" xmlns:svgjs="http://svgjs.dev/svgjs" width="1440" height="560" preserveAspectRatio="none" viewBox="0 0 1440 560"><g mask="url(&quot;#SvgjsMask1259&quot;)" fill="none"><rect width="1440" height="560" x="0" y="0" fill="url(&quot;#SvgjsLinearGradient1260&quot;)"></rect><path d="M829 339L828 -39" stroke-width="6" stroke="url(&quot;#SvgjsLinearGradient1261&quot;)" stroke-linecap="round" class="Up"></path><path d="M1398 329L1397 168" stroke-width="6" stroke="url(&quot;#SvgjsLinearGradient1262&quot;)" stroke-linecap="round" class="Down"></path><path d="M1311 60L1310 463" stroke-width="10" stroke="url(&quot;#SvgjsLinearGradient1261&quot;)" stroke-linecap="round" class="Up"></path><path d="M1140 99L1139 353" stroke-width="8" stroke="url(&quot;#SvgjsLinearGradient1262&quot;)" stroke-linecap="round" class="Down"></path><path d="M1417 532L1416 692" stroke-width="6" stroke="url(&quot;#SvgjsLinearGradient1261&quot;)" stroke-linecap="round" class="Up"></path><path d="M191 92L190 -240" stroke-width="6" stroke="url(&quot;#SvgjsLinearGradient1262&quot;)" stroke-linecap="round" class="Down"></path><path d="M1146 436L1145 277" stroke-width="10" stroke="url(&quot;#SvgjsLinearGradient1261&quot;)" stroke-linecap="round" class="Up"></path><path d="M1427 336L1426 -35" stroke-width="6" stroke="url(&quot;#SvgjsLinearGradient1262&quot;)" stroke-linecap="round" class="Down"></path><path d="M465 331L464 85" stroke-width="8" stroke="url(&quot;#SvgjsLinearGradient1262&quot;)" stroke-linecap="round" class="Down"></path><path d="M936 165L935 419" stroke-width="8" stroke="url(&quot;#SvgjsLinearGradient1262&quot;)" stroke-linecap="round" class="Down"></path><path d="M234 256L233 537" stroke-width="6" stroke="url(&quot;#SvgjsLinearGradient1262&quot;)" stroke-linecap="round" class="Down"></path><path d="M1125 117L1124 472" stroke-width="8" stroke="url(&quot;#SvgjsLinearGradient1261&quot;)" stroke-linecap="round" class="Up"></path><path d="M410 42L409 461" stroke-width="10" stroke="url(&quot;#SvgjsLinearGradient1262&quot;)" stroke-linecap="round" class="Down"></path><path d="M255 486L254 160" stroke-width="10" stroke="url(&quot;#SvgjsLinearGradient1262&quot;)" stroke-linecap="round" class="Down"></path><path d="M412 406L411 108" stroke-width="10" stroke="url(&quot;#SvgjsLinearGradient1261&quot;)" stroke-linecap="round" class="Up"></path><path d="M547 202L546 461" stroke-width="8" stroke="url(&quot;#SvgjsLinearGradient1262&quot;)" stroke-linecap="round" class="Down"></path><path d="M182 389L181 688" stroke-width="6" stroke="url(&quot;#SvgjsLinearGradient1262&quot;)" stroke-linecap="round" class="Down"></path><path d="M1075 19L1074 260" stroke-width="6" stroke="url(&quot;#SvgjsLinearGradient1261&quot;)" stroke-linecap="round" class="Up"></path><path d="M405 351L404 186" stroke-width="8" stroke="url(&quot;#SvgjsLinearGradient1262&quot;)" stroke-linecap="round" class="Down"></path><path d="M1340 111L1339 -29" stroke-width="10" stroke="url(&quot;#SvgjsLinearGradient1261&quot;)" stroke-linecap="round" class="Up"></path><path d="M1306 118L1305 -157" stroke-width="6" stroke="url(&quot;#SvgjsLinearGradient1262&quot;)" stroke-linecap="round" class="Down"></path><path d="M1058 337L1057 176" stroke-width="8" stroke="url(&quot;#SvgjsLinearGradient1262&quot;)" stroke-linecap="round" class="Down"></path><path d="M1236 28L1235 312" stroke-width="8" stroke="url(&quot;#SvgjsLinearGradient1261&quot;)" stroke-linecap="round" class="Up"></path><path d="M1109 519L1108 769" stroke-width="6" stroke="url(&quot;#SvgjsLinearGradient1262&quot;)" stroke-linecap="round" class="Down"></path><path d="M583 281L582 695" stroke-width="6" stroke="url(&quot;#SvgjsLinearGradient1261&quot;)" stroke-linecap="round" class="Up"></path><path d="M496 444L495 638" stroke-width="6" stroke="url(&quot;#SvgjsLinearGradient1262&quot;)" stroke-linecap="round" class="Down"></path><path d="M264 442L263 55" stroke-width="8" stroke="url(&quot;#SvgjsLinearGradient1261&quot;)" stroke-linecap="round" class="Up"></path><path d="M1045 95L1044 313" stroke-width="8" stroke="url(&quot;#SvgjsLinearGradient1262&quot;)" stroke-linecap="round" class="Down"></path><path d="M93 124L92 466" stroke-width="10" stroke="url(&quot;#SvgjsLinearGradient1261&quot;)" stroke-linecap="round" class="Up"></path><path d="M18 144L17 523" stroke-width="10" stroke="url(&quot;#SvgjsLinearGradient1261&quot;)" stroke-linecap="round" class="Up"></path><path d="M67 105L66 261" stroke-width="8" stroke="url(&quot;#SvgjsLinearGradient1261&quot;)" stroke-linecap="round" class="Up"></path><path d="M1312 531L1311 265" stroke-width="6" stroke="url(&quot;#SvgjsLinearGradient1261&quot;)" stroke-linecap="round" class="Up"></path><path d="M1121 402L1120 0" stroke-width="6" stroke="url(&quot;#SvgjsLinearGradient1261&quot;)" stroke-linecap="round" class="Up"></path><path d="M26 506L25 905" stroke-width="8" stroke="url(&quot;#SvgjsLinearGradient1262&quot;)" stroke-linecap="round" class="Down"></path><path d="M819 346L818 635" stroke-width="8" stroke="url(&quot;#SvgjsLinearGradient1261&quot;)" stroke-linecap="round" class="Up"></path><path d="M233 317L232 616" stroke-width="10" stroke="url(&quot;#SvgjsLinearGradient1261&quot;)" stroke-linecap="round" class="Up"></path></g><defs><mask id="SvgjsMask1259"><rect width="1440" height="560" fill="#ffffff"></rect></mask><linearGradient x1="84.72%" y1="-39.29%" x2="15.28%" y2="139.29%" gradientUnits="userSpaceOnUse" id="SvgjsLinearGradient1260"><stop stop-color="#0e2a47" offset="0"></stop><stop stop-color="rgba(1, 8, 18, 1)" offset="1"></stop></linearGradient><linearGradient x1="0%" y1="100%" x2="0%" y2="0%" id="SvgjsLinearGradient1261"><stop stop-color="rgba(28, 83, 142, 0)" offset="0"></stop><stop stop-color="#1c538e" offset="1"></stop></linearGradient><linearGradient x1="0%" y1="0%" x2="0%" y2="100%" id="SvgjsLinearGradient1262"><stop stop-color="rgba(28, 83, 142, 0)" offset="0"></stop><stop stop-color="#1c538e" offset="1"></stop></linearGradient></defs></svg>